<svg xmlns="http://www.w3.org/2000/svg" xmlns:xlink="http://www.w3.org/1999/xlink" width="167" zoomAndPan="magnify" viewBox="0 0 125.25 124.499995" height="166" preserveAspectRatio="xMidYMid meet" version="1.0"><defs><clipPath id="abd14110ec"><path d="M 0 0.121094 L 103.316406 0.121094 L 103.316406 103.441406 L 0 103.441406 Z M 0 0.121094 " clip-rule="nonzero"/></clipPath><clipPath id="5581fe3f5e"><path d="M 51.660156 0.121094 C 23.128906 0.121094 0 23.25 0 51.78125 C 0 80.3125 23.128906 103.441406 51.660156 103.441406 C 80.1875 103.441406 103.316406 80.3125 103.316406 51.78125 C 103.316406 23.25 80.1875 0.121094 51.660156 0.121094 Z M 51.660156 0.121094 " clip-rule="nonzero"/></clipPath><clipPath id="3fde82a2b0"><path d="M 26 6 L 103 6 L 103 104 L 26 104 Z M 26 6 " clip-rule="nonzero"/></clipPath><clipPath id="f9a426cbb6"><path d="M 124.289062 32.777344 L 75.0625 123.121094 L 25.960938 96.367188 L 75.191406 6.023438 Z M 124.289062 32.777344 " clip-rule="nonzero"/></clipPath><clipPath id="66078b2031"><path d="M 124.289062 32.777344 L 75.0625 123.121094 L 25.960938 96.367188 L 75.191406 6.023438 Z M 124.289062 32.777344 " clip-rule="nonzero"/></clipPath><clipPath id="ad272ab764"><path d="M 27.339844 25.273438 L 75.800781 25.273438 L 75.800781 78.207031 L 27.339844 78.207031 Z M 27.339844 25.273438 " clip-rule="nonzero"/></clipPath></defs><g clip-path="url(#abd14110ec)"><g clip-path="url(#5581fe3f5e)"><path fill="#fafafa" d="M 0 0.121094 L 103.316406 0.121094 L 103.316406 103.441406 L 0 103.441406 Z M 0 0.121094 " fill-opacity="1" fill-rule="nonzero"/></g></g><g clip-path="url(#3fde82a2b0)"><g clip-path="url(#f9a426cbb6)"><g clip-path="url(#66078b2031)"><path fill="#d5d5d5" d="M 26.265625 96.597656 L 75.523438 6.203125 C 91.429688 15.382812 100.957031 28.632812 102.539062 46.710938 C 104.386719 67.886719 95.960938 84.636719 77.820312 95.667969 C 61.253906 105.738281 43.96875 105.417969 26.265625 96.601562 Z M 26.265625 96.597656 " fill-opacity="1" fill-rule="nonzero"/></g></g></g><g clip-path="url(#ad272ab764)"><path fill="#2196f3" d="M 75.492188 25.636719 C 75.273438 25.394531 75 25.273438 74.675781 25.273438 L 28.464844 25.273438 C 28.308594 25.273438 28.160156 25.304688 28.015625 25.367188 C 27.875 25.429688 27.75 25.519531 27.644531 25.636719 C 27.539062 25.75 27.460938 25.882812 27.414062 26.03125 C 27.363281 26.179688 27.347656 26.332031 27.363281 26.488281 L 31.765625 70.597656 C 31.785156 70.816406 31.863281 71.007812 32 71.179688 C 32.136719 71.347656 32.304688 71.46875 32.511719 71.535156 L 52.316406 78.152344 C 52.429688 78.191406 52.546875 78.207031 52.667969 78.207031 C 52.804688 78.207031 52.933594 78.183594 53.058594 78.136719 L 70.660156 71.519531 C 71.089844 71.363281 71.328125 71.054688 71.375 70.597656 L 75.773438 26.488281 C 75.808594 26.160156 75.710938 25.878906 75.492188 25.636719 Z M 75.492188 25.636719 " fill-opacity="1" fill-rule="nonzero"/></g><path fill="#fafafa" d="M 52.667969 67.179688 C 52.550781 67.179688 52.433594 67.160156 52.320312 67.125 L 42.417969 63.816406 C 42.015625 63.683594 41.773438 63.40625 41.6875 62.988281 L 40.589844 57.476562 C 40.558594 57.332031 40.558594 57.1875 40.585938 57.046875 C 40.613281 56.902344 40.667969 56.769531 40.75 56.648438 C 40.828125 56.523438 40.929688 56.421875 41.050781 56.339844 C 41.171875 56.257812 41.304688 56.203125 41.445312 56.175781 C 41.589844 56.144531 41.734375 56.144531 41.875 56.171875 C 42.019531 56.199219 42.152344 56.253906 42.273438 56.335938 C 42.394531 56.414062 42.496094 56.515625 42.578125 56.636719 C 42.660156 56.757812 42.714844 56.890625 42.746094 57.035156 L 43.71875 61.921875 L 52.648438 64.910156 L 60.496094 61.960938 L 64.566406 38.507812 L 39.464844 38.507812 C 39.320312 38.507812 39.179688 38.480469 39.046875 38.425781 C 38.910156 38.367188 38.792969 38.289062 38.6875 38.183594 C 38.585938 38.082031 38.507812 37.960938 38.449219 37.828125 C 38.394531 37.691406 38.367188 37.550781 38.367188 37.40625 C 38.367188 37.257812 38.394531 37.117188 38.449219 36.984375 C 38.507812 36.847656 38.585938 36.730469 38.6875 36.625 C 38.792969 36.523438 38.910156 36.441406 39.046875 36.386719 C 39.179688 36.332031 39.320312 36.300781 39.464844 36.300781 L 65.871094 36.300781 C 66.035156 36.300781 66.191406 36.335938 66.335938 36.40625 C 66.484375 36.472656 66.609375 36.570312 66.714844 36.695312 C 66.820312 36.820312 66.894531 36.960938 66.9375 37.117188 C 66.980469 37.277344 66.984375 37.433594 66.957031 37.59375 L 62.558594 62.957031 C 62.484375 63.371094 62.25 63.652344 61.859375 63.800781 L 53.058594 67.109375 C 52.933594 67.15625 52.804688 67.179688 52.667969 67.179688 Z M 52.667969 67.179688 " fill-opacity="1" fill-rule="nonzero"/><path fill="#fafafa" d="M 63.671875 49.535156 L 40.566406 49.535156 C 40.421875 49.535156 40.28125 49.507812 40.144531 49.453125 C 40.011719 49.394531 39.890625 49.316406 39.789062 49.214844 C 39.6875 49.109375 39.605469 48.992188 39.550781 48.855469 C 39.496094 48.71875 39.464844 48.578125 39.464844 48.433594 C 39.464844 48.285156 39.496094 48.144531 39.550781 48.011719 C 39.605469 47.875 39.6875 47.757812 39.789062 47.652344 C 39.890625 47.550781 40.011719 47.46875 40.144531 47.414062 C 40.28125 47.359375 40.421875 47.332031 40.566406 47.332031 L 63.671875 47.332031 C 63.816406 47.332031 63.957031 47.359375 64.09375 47.414062 C 64.226562 47.46875 64.347656 47.550781 64.449219 47.652344 C 64.554688 47.757812 64.632812 47.875 64.6875 48.011719 C 64.746094 48.144531 64.773438 48.285156 64.773438 48.433594 C 64.773438 48.578125 64.746094 48.71875 64.6875 48.855469 C 64.632812 48.992188 64.554688 49.109375 64.449219 49.214844 C 64.347656 49.316406 64.226562 49.394531 64.09375 49.453125 C 63.957031 49.507812 63.816406 49.535156 63.671875 49.535156 Z M 63.671875 49.535156 " fill-opacity="1" fill-rule="nonzero"/></svg>