<svg xmlns="http://www.w3.org/2000/svg" xmlns:xlink="http://www.w3.org/1999/xlink" width="167" zoomAndPan="magnify" viewBox="0 0 125.25 124.499995" height="166" preserveAspectRatio="xMidYMid meet" version="1.0"><defs><clipPath id="7d6dd216dc"><path d="M 0 0.121094 L 103.316406 0.121094 L 103.316406 103.441406 L 0 103.441406 Z M 0 0.121094 " clip-rule="nonzero"/></clipPath><clipPath id="89dd88c49a"><path d="M 51.660156 0.121094 C 23.128906 0.121094 0 23.25 0 51.78125 C 0 80.3125 23.128906 103.441406 51.660156 103.441406 C 80.1875 103.441406 103.316406 80.3125 103.316406 51.78125 C 103.316406 23.25 80.1875 0.121094 51.660156 0.121094 Z M 51.660156 0.121094 " clip-rule="nonzero"/></clipPath><clipPath id="d31a52e995"><path d="M 26 6 L 103 6 L 103 104 L 26 104 Z M 26 6 " clip-rule="nonzero"/></clipPath><clipPath id="b6f9604944"><path d="M 124.480469 32.878906 L 75.253906 123.222656 L 26.152344 96.46875 L 75.382812 6.125 Z M 124.480469 32.878906 " clip-rule="nonzero"/></clipPath><clipPath id="531cbc126f"><path d="M 124.480469 32.878906 L 75.253906 123.222656 L 26.152344 96.46875 L 75.382812 6.125 Z M 124.480469 32.878906 " clip-rule="nonzero"/></clipPath><clipPath id="c0437ada34"><path d="M 27.867188 24 L 75.582031 24 L 75.582031 78.414062 L 27.867188 78.414062 Z M 27.867188 24 " clip-rule="nonzero"/></clipPath></defs><g clip-path="url(#7d6dd216dc)"><g clip-path="url(#89dd88c49a)"><path fill="#fafafa" d="M 0 0.121094 L 103.316406 0.121094 L 103.316406 103.441406 L 0 103.441406 Z M 0 0.121094 " fill-opacity="1" fill-rule="nonzero"/></g></g><g clip-path="url(#d31a52e995)"><g clip-path="url(#b6f9604944)"><g clip-path="url(#531cbc126f)"><path fill="#d5d5d5" d="M 26.457031 96.699219 L 75.710938 6.308594 C 91.621094 15.484375 101.148438 28.734375 102.726562 46.8125 C 104.578125 67.988281 96.152344 84.738281 78.011719 95.769531 C 61.445312 105.839844 44.160156 105.523438 26.457031 96.703125 Z M 26.457031 96.699219 " fill-opacity="1" fill-rule="nonzero"/></g></g></g><g clip-path="url(#c0437ada34)"><path fill="#e44d26" d="M 32.199219 72.851562 L 27.851562 24.148438 L 75.59375 24.148438 L 71.246094 72.84375 L 51.695312 78.257812 Z M 32.199219 72.851562 " fill-opacity="1" fill-rule="nonzero"/></g><path fill="#f16529" d="M 67.523438 69.742188 L 71.238281 28.128906 L 51.722656 28.128906 L 51.722656 74.121094 Z M 67.523438 69.742188 " fill-opacity="1" fill-rule="nonzero"/><path fill="#ebebeb" d="M 51.703125 34.101562 L 36.738281 34.101562 L 38.347656 52.167969 L 51.722656 52.167969 L 51.722656 46.195312 L 43.816406 46.195312 L 43.269531 40.078125 L 51.722656 40.078125 L 51.722656 34.101562 Z M 51.722656 61.6875 L 51.699219 61.691406 L 45.042969 59.898438 L 44.621094 55.132812 L 38.617188 55.132812 L 39.453125 64.511719 L 51.695312 67.894531 L 51.722656 67.886719 Z M 51.722656 61.6875 " fill-opacity="1" fill-rule="nonzero"/><path fill="#ffffff" d="M 51.703125 52.167969 L 59.0625 52.167969 L 58.386719 59.910156 L 51.722656 61.707031 L 51.722656 67.921875 L 63.972656 64.527344 L 65.617188 46.191406 L 51.722656 46.191406 Z M 66.53125 35.707031 L 66.675781 34.101562 L 51.699219 34.101562 L 51.699219 40.074219 L 66.136719 40.074219 L 66.253906 38.734375 Z M 66.53125 35.707031 " fill-opacity="1" fill-rule="nonzero"/></svg>