<svg xmlns="http://www.w3.org/2000/svg" xmlns:xlink="http://www.w3.org/1999/xlink" width="166" zoomAndPan="magnify" viewBox="0 0 124.5 124.499995" height="166" preserveAspectRatio="xMidYMid meet" version="1.0"><defs><clipPath id="20653b79d4"><path d="M 0 0 L 103.519531 0 L 103.519531 103.519531 L 0 103.519531 Z M 0 0 " clip-rule="nonzero"/></clipPath><clipPath id="58aa46cc7b"><path d="M 51.761719 0 C 23.175781 0 0 23.175781 0 51.761719 C 0 80.347656 23.175781 103.519531 51.761719 103.519531 C 80.347656 103.519531 103.519531 80.347656 103.519531 51.761719 C 103.519531 23.175781 80.347656 0 51.761719 0 Z M 51.761719 0 " clip-rule="nonzero"/></clipPath><clipPath id="33dc7f7853"><path d="M 25 6 L 103 6 L 103 104 L 25 104 Z M 25 6 " clip-rule="nonzero"/></clipPath><clipPath id="aea0460467"><path d="M 123.667969 32.71875 L 74.34375 123.238281 L 25.148438 96.433594 L 74.472656 5.914062 Z M 123.667969 32.71875 " clip-rule="nonzero"/></clipPath><clipPath id="b9bd0c566b"><path d="M 123.667969 32.71875 L 74.34375 123.238281 L 25.148438 96.433594 L 74.472656 5.914062 Z M 123.667969 32.71875 " clip-rule="nonzero"/></clipPath><clipPath id="9453c69145"><path d="M 26.382812 26.382812 L 77.175781 26.382812 L 77.175781 77.175781 L 26.382812 77.175781 Z M 26.382812 26.382812 " clip-rule="nonzero"/></clipPath><clipPath id="ce7ff2c617"><path d="M 26.382812 26.382812 L 52 26.382812 L 52 77.175781 L 26.382812 77.175781 Z M 26.382812 26.382812 " clip-rule="nonzero"/></clipPath></defs><g clip-path="url(#20653b79d4)"><g clip-path="url(#58aa46cc7b)"><path fill="#fafafa" d="M 0 0 L 103.519531 0 L 103.519531 103.519531 L 0 103.519531 Z M 0 0 " fill-opacity="1" fill-rule="nonzero"/></g></g><g clip-path="url(#33dc7f7853)"><g clip-path="url(#aea0460467)"><g clip-path="url(#b9bd0c566b)"><path fill="#d5d5d5" d="M 25.453125 96.664062 L 74.804688 6.09375 C 90.742188 15.289062 100.289062 28.566406 101.875 46.679688 C 103.726562 67.898438 95.285156 84.679688 77.109375 95.734375 C 60.507812 105.824219 43.191406 105.503906 25.453125 96.667969 Z M 25.453125 96.664062 " fill-opacity="1" fill-rule="nonzero"/></g></g></g><g clip-path="url(#9453c69145)"><path fill="#ffc44d" d="M 28.269531 26.261719 C 27.761719 26.261719 27.277344 26.480469 26.941406 26.863281 C 26.605469 27.242188 26.449219 27.75 26.511719 28.253906 L 31.238281 66.054688 C 31.3125 66.644531 31.675781 67.15625 32.203125 67.421875 L 51.105469 76.871094 C 51.605469 77.121094 52.191406 77.121094 52.691406 76.871094 L 71.589844 67.421875 C 72.121094 67.15625 72.484375 66.644531 72.554688 66.054688 L 77.28125 28.253906 C 77.34375 27.75 77.1875 27.242188 76.851562 26.863281 C 76.515625 26.480469 76.03125 26.261719 75.523438 26.261719 Z M 28.269531 26.261719 " fill-opacity="1" fill-rule="nonzero"/></g><g clip-path="url(#ce7ff2c617)"><path fill="#e5b045" d="M 51.898438 26.261719 L 51.898438 77.058594 C 51.625 77.058594 51.355469 76.996094 51.105469 76.871094 L 32.203125 67.421875 C 31.675781 67.15625 31.3125 66.644531 31.238281 66.054688 L 26.511719 28.253906 C 26.449219 27.75 26.605469 27.242188 26.941406 26.863281 C 27.277344 26.480469 27.761719 26.261719 28.269531 26.261719 Z M 51.898438 26.261719 " fill-opacity="1" fill-rule="evenodd"/></g><path fill="#eceff1" d="M 36.414062 33.929688 C 36.75 33.558594 37.222656 33.351562 37.722656 33.351562 L 66.074219 33.351562 C 67.050781 33.351562 67.84375 34.144531 67.84375 35.121094 C 67.84375 36.101562 67.050781 36.894531 66.074219 36.894531 L 39.660156 36.894531 L 40.519531 46.34375 L 66.074219 46.34375 C 66.597656 46.34375 67.097656 46.578125 67.433594 46.980469 C 67.769531 47.386719 67.910156 47.917969 67.816406 48.433594 L 65.453125 61.429688 C 65.363281 61.929688 65.058594 62.367188 64.621094 62.632812 L 52.808594 69.71875 C 52.246094 70.054688 51.546875 70.054688 50.984375 69.71875 L 39.171875 62.632812 C 38.6875 62.339844 38.371094 61.835938 38.320312 61.273438 L 35.957031 35.285156 C 35.910156 34.789062 36.078125 34.296875 36.414062 33.929688 Z M 40.84375 49.890625 L 41.765625 60.054688 L 51.898438 66.132812 L 62.109375 60.003906 L 63.949219 49.890625 Z M 40.84375 49.890625 " fill-opacity="1" fill-rule="evenodd"/><path fill="#cfd8dc" d="M 51.898438 36.894531 L 39.660156 36.894531 L 40.519531 46.34375 L 51.898438 46.34375 L 51.898438 49.890625 L 40.84375 49.890625 L 41.765625 60.054688 L 51.898438 66.132812 L 51.898438 69.972656 C 51.582031 69.972656 51.265625 69.886719 50.984375 69.71875 L 39.171875 62.632812 C 38.6875 62.339844 38.371094 61.835938 38.320312 61.273438 L 37.136719 48.277344 L 35.957031 35.285156 C 35.910156 34.789062 36.078125 34.296875 36.414062 33.929688 C 36.75 33.558594 37.222656 33.351562 37.722656 33.351562 L 51.898438 33.351562 Z M 51.898438 36.894531 " fill-opacity="1" fill-rule="evenodd"/></svg>