<svg xmlns="http://www.w3.org/2000/svg" xmlns:xlink="http://www.w3.org/1999/xlink" width="168" zoomAndPan="magnify" viewBox="0 0 126 124.499996" height="166" preserveAspectRatio="xMidYMid meet" version="1.0"><defs><clipPath id="fd6d9ee7ee"><path d="M 0.253906 0 L 103.773438 0 L 103.773438 103.519531 L 0.253906 103.519531 Z M 0.253906 0 " clip-rule="nonzero"/></clipPath><clipPath id="7d465965f8"><path d="M 52.011719 0 C 23.425781 0 0.253906 23.175781 0.253906 51.761719 C 0.253906 80.347656 23.425781 103.519531 52.011719 103.519531 C 80.597656 103.519531 103.773438 80.347656 103.773438 51.761719 C 103.773438 23.175781 80.597656 0 52.011719 0 Z M 52.011719 0 " clip-rule="nonzero"/></clipPath><clipPath id="986a09be6d"><path d="M 27 6 L 104 6 L 104 104 L 27 104 Z M 27 6 " clip-rule="nonzero"/></clipPath><clipPath id="75df80d8b6"><path d="M 125.246094 32.71875 L 75.917969 123.238281 L 26.722656 96.433594 L 76.050781 5.914062 Z M 125.246094 32.71875 " clip-rule="nonzero"/></clipPath><clipPath id="59ae43cf16"><path d="M 125.246094 32.71875 L 75.917969 123.238281 L 26.722656 96.433594 L 76.050781 5.914062 Z M 125.246094 32.71875 " clip-rule="nonzero"/></clipPath><clipPath id="09aa8077c6"><path d="M 35 15.667969 L 67 15.667969 L 67 78.417969 L 35 78.417969 Z M 35 15.667969 " clip-rule="nonzero"/></clipPath></defs><g clip-path="url(#fd6d9ee7ee)"><g clip-path="url(#7d465965f8)"><path fill="#fafafa" d="M 0.253906 0 L 103.773438 0 L 103.773438 103.519531 L 0.253906 103.519531 Z M 0.253906 0 " fill-opacity="1" fill-rule="nonzero"/></g></g><g clip-path="url(#986a09be6d)"><g clip-path="url(#75df80d8b6)"><g clip-path="url(#59ae43cf16)"><path fill="#d5d5d5" d="M 27.027344 96.664062 L 76.382812 6.09375 C 92.320312 15.289062 101.867188 28.566406 103.449219 46.679688 C 105.300781 67.898438 96.859375 84.679688 78.683594 95.734375 C 62.085938 105.824219 44.765625 105.503906 27.03125 96.667969 Z M 27.027344 96.664062 " fill-opacity="1" fill-rule="nonzero"/></g></g></g><path fill="#4e7896" d="M 46.214844 48.945312 C 46.214844 48.945312 44.574219 49.953125 47.355469 50.238281 C 50.707031 50.671875 52.492188 50.597656 56.199219 49.878906 C 56.199219 49.878906 57.195312 50.527344 58.550781 51.03125 C 50.207031 54.625 39.65625 50.816406 46.214844 48.945312 Z M 45.144531 44.273438 C 45.144531 44.273438 43.363281 45.640625 46.144531 45.929688 C 49.78125 46.289062 52.632812 46.359375 57.554688 45.351562 C 57.554688 45.351562 58.195312 46.070312 59.265625 46.429688 C 49.210938 49.449219 37.945312 46.71875 45.144531 44.273438 Z M 64.828125 52.46875 C 64.828125 52.46875 66.039062 53.472656 63.472656 54.265625 C 58.695312 55.703125 43.433594 56.132812 39.15625 54.265625 C 37.660156 53.617188 40.511719 52.683594 41.4375 52.539062 C 42.363281 52.324219 42.863281 52.324219 42.863281 52.324219 C 41.222656 51.171875 31.953125 54.695312 38.15625 55.703125 C 55.199219 58.503906 69.25 54.480469 64.828125 52.46875 Z M 47 39.386719 C 47 39.386719 39.226562 41.253906 44.21875 41.902344 C 46.359375 42.191406 50.566406 42.117188 54.488281 41.832031 C 57.695312 41.542969 60.90625 40.96875 60.90625 40.96875 C 60.90625 40.96875 59.765625 41.46875 58.980469 41.972656 C 51.066406 44.058594 35.878906 43.125 40.226562 40.96875 C 43.933594 39.171875 47 39.386719 47 39.386719 Z M 60.90625 47.21875 C 68.890625 43.050781 65.183594 39.027344 62.617188 39.53125 C 61.976562 39.675781 61.691406 39.816406 61.691406 39.816406 C 61.691406 39.816406 61.902344 39.386719 62.402344 39.242188 C 67.464844 37.445312 71.460938 44.632812 60.761719 47.4375 C 60.761719 47.4375 60.835938 47.363281 60.90625 47.21875 Z M 47.785156 58.574219 C 55.484375 59.078125 67.25 58.289062 67.539062 54.625 C 67.539062 54.625 66.96875 56.058594 61.191406 57.136719 C 54.632812 58.359375 46.503906 58.214844 41.726562 57.425781 C 41.726562 57.425781 42.722656 58.289062 47.785156 58.574219 Z M 47.785156 58.574219 " fill-opacity="1" fill-rule="nonzero"/><g clip-path="url(#09aa8077c6)"><path fill="#f58219" d="M 56.054688 15.667969 C 56.054688 15.667969 60.476562 20.199219 51.847656 27.023438 C 44.933594 32.558594 50.28125 35.722656 51.847656 39.316406 C 47.785156 35.648438 44.859375 32.414062 46.855469 29.398438 C 49.78125 24.941406 57.839844 22.785156 56.054688 15.667969 Z M 53.777344 36.296875 C 55.84375 38.667969 53.207031 40.824219 53.207031 40.824219 C 53.207031 40.824219 58.480469 38.09375 56.058594 34.714844 C 53.847656 31.480469 52.136719 29.902344 61.40625 24.511719 C 61.40625 24.511719 46.789062 28.175781 53.773438 36.296875 Z M 48.496094 74.890625 L 48.496094 67.847656 C 48.496094 66.050781 47.5 64.828125 45.003906 64.828125 C 43.578125 64.828125 42.367188 65.1875 41.296875 65.617188 L 41.652344 66.910156 C 42.433594 66.625 43.433594 66.335938 44.503906 66.335938 C 45.859375 66.335938 46.5 66.910156 46.5 68.0625 L 46.5 68.996094 L 45.789062 68.996094 C 42.367188 68.996094 40.796875 70.289062 40.796875 72.371094 C 40.796875 74.097656 41.867188 75.105469 43.792969 75.105469 C 45.003906 75.105469 45.929688 74.527344 46.785156 73.808594 L 46.929688 74.886719 L 48.496094 74.886719 Z M 46.5 72.589844 C 45.789062 73.238281 45.003906 73.597656 44.289062 73.597656 C 43.363281 73.597656 42.792969 73.019531 42.792969 72.015625 C 42.792969 71.007812 43.363281 70.289062 45.644531 70.289062 L 46.5 70.289062 Z M 55.199219 74.890625 L 52.707031 74.890625 L 49.710938 65.042969 L 51.851562 65.042969 L 53.703125 71.082031 L 54.132812 72.878906 C 55.058594 70.289062 55.773438 67.632812 56.058594 65.042969 L 58.195312 65.042969 C 57.625 68.277344 56.628906 71.800781 55.203125 74.890625 Z M 66.753906 74.890625 L 66.753906 67.847656 C 66.753906 66.050781 65.753906 64.828125 63.257812 64.828125 C 61.832031 64.828125 60.621094 65.1875 59.550781 65.617188 L 59.835938 66.910156 C 60.691406 66.625 61.691406 66.335938 62.757812 66.335938 C 64.113281 66.335938 64.757812 66.910156 64.757812 68.0625 L 64.757812 68.996094 L 64.042969 68.996094 C 60.621094 68.996094 59.050781 70.289062 59.050781 72.371094 C 59.050781 74.097656 60.050781 75.105469 61.976562 75.105469 C 63.257812 75.105469 64.1875 74.527344 65.042969 73.808594 L 65.183594 74.886719 L 66.753906 74.886719 Z M 64.757812 72.589844 C 64.042969 73.238281 63.257812 73.597656 62.546875 73.597656 C 61.617188 73.597656 61.046875 73.019531 61.046875 72.015625 C 61.046875 71.007812 61.617188 70.289062 63.898438 70.289062 L 64.757812 70.289062 Z M 38.585938 76.542969 C 38.015625 77.40625 37.160156 78.050781 36.089844 78.410156 L 35.164062 77.261719 C 35.875 76.832031 36.589844 76.183594 36.875 75.609375 C 37.160156 75.105469 37.230469 74.386719 37.230469 72.734375 L 37.230469 61.523438 L 39.371094 61.523438 L 39.371094 72.589844 C 39.371094 74.820312 39.15625 75.679688 38.585938 76.542969 Z M 38.585938 76.542969 " fill-opacity="1" fill-rule="nonzero"/></g></svg>