<svg xmlns="http://www.w3.org/2000/svg" xmlns:xlink="http://www.w3.org/1999/xlink" width="167" zoomAndPan="magnify" viewBox="0 0 125.25 123.749996" height="165" preserveAspectRatio="xMidYMid meet" version="1.0"><defs><clipPath id="b93bcf88c2"><path d="M 0 0.242188 L 103.316406 0.242188 L 103.316406 103.5625 L 0 103.5625 Z M 0 0.242188 " clip-rule="nonzero"/></clipPath><clipPath id="ee34bb582f"><path d="M 51.660156 0.242188 C 23.128906 0.242188 0 23.371094 0 51.902344 C 0 80.433594 23.128906 103.5625 51.660156 103.5625 C 80.1875 103.5625 103.316406 80.433594 103.316406 51.902344 C 103.316406 23.371094 80.1875 0.242188 51.660156 0.242188 Z M 51.660156 0.242188 " clip-rule="nonzero"/></clipPath><clipPath id="9570277ac3"><path d="M 26 5 L 103 5 L 103 103 L 26 103 Z M 26 5 " clip-rule="nonzero"/></clipPath><clipPath id="968f448ab4"><path d="M 124.261719 32.46875 L 75.035156 122.8125 L 25.9375 96.058594 L 75.164062 5.714844 Z M 124.261719 32.46875 " clip-rule="nonzero"/></clipPath><clipPath id="c403fc65ac"><path d="M 124.261719 32.46875 L 75.035156 122.8125 L 25.9375 96.058594 L 75.164062 5.714844 Z M 124.261719 32.46875 " clip-rule="nonzero"/></clipPath><clipPath id="4017b730e5"><path d="M 16.53125 30.71875 L 86.613281 30.71875 L 86.613281 73.210938 L 16.53125 73.210938 Z M 16.53125 30.71875 " clip-rule="nonzero"/></clipPath></defs><g clip-path="url(#b93bcf88c2)"><g clip-path="url(#ee34bb582f)"><path fill="#fafafa" d="M 0 0.242188 L 103.316406 0.242188 L 103.316406 103.5625 L 0 103.5625 Z M 0 0.242188 " fill-opacity="1" fill-rule="nonzero"/></g></g><g clip-path="url(#9570277ac3)"><g clip-path="url(#968f448ab4)"><g clip-path="url(#c403fc65ac)"><path fill="#d5d5d5" d="M 26.238281 96.289062 L 75.496094 5.898438 C 91.402344 15.074219 100.929688 28.324219 102.511719 46.402344 C 104.359375 67.578125 95.933594 84.328125 77.792969 95.359375 C 61.226562 105.429688 43.945312 105.113281 26.242188 96.292969 Z M 26.238281 96.289062 " fill-opacity="1" fill-rule="nonzero"/></g></g></g><g clip-path="url(#4017b730e5)"><path fill="#000000" d="M 33.074219 41.800781 L 46.289062 41.800781 L 46.289062 42.855469 L 34.285156 42.855469 L 34.285156 50.800781 L 45.570312 50.800781 L 45.570312 51.859375 L 34.285156 51.859375 L 34.285156 60.582031 L 46.425781 60.582031 L 46.425781 61.640625 L 33.074219 61.640625 Z M 47.472656 41.800781 L 48.875 41.800781 L 55.097656 50.523438 L 61.457031 41.800781 L 70.105469 30.71875 L 55.894531 51.441406 L 63.21875 61.640625 L 61.757812 61.640625 L 55.097656 52.359375 L 48.40625 61.640625 L 46.976562 61.640625 L 54.351562 51.441406 Z M 63.742188 42.855469 L 63.742188 41.800781 L 78.800781 41.800781 L 78.800781 42.855469 L 71.863281 42.855469 L 71.863281 61.640625 L 70.652344 61.640625 L 70.652344 42.855469 Z M 16.542969 41.800781 L 18.054688 41.800781 L 38.933594 73.210938 L 30.308594 61.640625 L 17.808594 43.300781 L 17.753906 61.640625 L 16.542969 61.640625 Z M 78.675781 60.265625 C 78.429688 60.265625 78.246094 60.070312 78.246094 59.824219 C 78.246094 59.574219 78.429688 59.382812 78.675781 59.382812 C 78.925781 59.382812 79.109375 59.574219 79.109375 59.824219 C 79.109375 60.070312 78.925781 60.265625 78.675781 60.265625 Z M 79.867188 59.101562 L 80.515625 59.101562 C 80.523438 59.457031 80.78125 59.691406 81.15625 59.691406 C 81.578125 59.691406 81.816406 59.4375 81.816406 58.960938 L 81.816406 55.933594 L 82.476562 55.933594 L 82.476562 58.964844 C 82.476562 59.824219 81.984375 60.316406 81.164062 60.316406 C 80.394531 60.316406 79.867188 59.839844 79.867188 59.101562 Z M 83.34375 59.0625 L 83.996094 59.0625 C 84.050781 59.472656 84.445312 59.726562 85.015625 59.726562 C 85.542969 59.726562 85.933594 59.453125 85.933594 59.074219 C 85.933594 58.746094 85.6875 58.550781 85.125 58.417969 L 84.574219 58.285156 C 83.808594 58.101562 83.457031 57.730469 83.457031 57.101562 C 83.457031 56.339844 84.074219 55.832031 85.003906 55.832031 C 85.867188 55.832031 86.496094 56.339844 86.535156 57.058594 L 85.890625 57.058594 C 85.832031 56.664062 85.488281 56.417969 84.992188 56.417969 C 84.472656 56.417969 84.125 56.671875 84.125 57.054688 C 84.125 57.363281 84.347656 57.535156 84.902344 57.667969 L 85.371094 57.78125 C 86.242188 57.988281 86.601562 58.34375 86.601562 58.988281 C 86.601562 59.804688 85.972656 60.316406 84.964844 60.316406 C 84.023438 60.316406 83.386719 59.828125 83.34375 59.0625 Z M 83.34375 59.0625 " fill-opacity="1" fill-rule="nonzero"/></g></svg>