<svg xmlns="http://www.w3.org/2000/svg" xmlns:xlink="http://www.w3.org/1999/xlink" width="167" zoomAndPan="magnify" viewBox="0 0 125.25 123.749996" height="165" preserveAspectRatio="xMidYMid meet" version="1.0"><defs><clipPath id="8388c8f77a"><path d="M 0 0.242188 L 103.316406 0.242188 L 103.316406 103.5625 L 0 103.5625 Z M 0 0.242188 " clip-rule="nonzero"/></clipPath><clipPath id="cb734d52ca"><path d="M 51.660156 0.242188 C 23.128906 0.242188 0 23.371094 0 51.902344 C 0 80.433594 23.128906 103.5625 51.660156 103.5625 C 80.1875 103.5625 103.316406 80.433594 103.316406 51.902344 C 103.316406 23.371094 80.1875 0.242188 51.660156 0.242188 Z M 51.660156 0.242188 " clip-rule="nonzero"/></clipPath><clipPath id="33a1ab3c69"><path d="M 25 5 L 103 5 L 103 103 L 25 103 Z M 25 5 " clip-rule="nonzero"/></clipPath><clipPath id="a9b445ff7c"><path d="M 124 32.46875 L 74.773438 122.8125 L 25.675781 96.058594 L 74.902344 5.714844 Z M 124 32.46875 " clip-rule="nonzero"/></clipPath><clipPath id="187cc2431a"><path d="M 124 32.46875 L 74.773438 122.8125 L 25.675781 96.058594 L 74.902344 5.714844 Z M 124 32.46875 " clip-rule="nonzero"/></clipPath><clipPath id="d7380e7585"><path d="M 30.15625 33 L 73.398438 33 L 73.398438 71 L 30.15625 71 Z M 30.15625 33 " clip-rule="nonzero"/></clipPath></defs><g clip-path="url(#8388c8f77a)"><g clip-path="url(#cb734d52ca)"><path fill="#fafafa" d="M 0 0.242188 L 103.316406 0.242188 L 103.316406 103.5625 L 0 103.5625 Z M 0 0.242188 " fill-opacity="1" fill-rule="nonzero"/></g></g><g clip-path="url(#33a1ab3c69)"><g clip-path="url(#a9b445ff7c)"><g clip-path="url(#187cc2431a)"><path fill="#d5d5d5" d="M 25.980469 96.289062 L 75.234375 5.898438 C 91.140625 15.074219 100.671875 28.324219 102.25 46.402344 C 104.097656 67.578125 95.671875 84.328125 77.53125 95.359375 C 60.964844 105.429688 43.683594 105.113281 25.980469 96.292969 Z M 25.980469 96.289062 " fill-opacity="1" fill-rule="nonzero"/></g></g></g><path fill="#53c1de" d="M 55.636719 51.921875 C 55.636719 49.859375 53.910156 48.1875 51.777344 48.1875 C 49.644531 48.1875 47.914062 49.859375 47.914062 51.921875 C 47.914062 53.980469 49.644531 55.652344 51.777344 55.652344 C 53.910156 55.652344 55.636719 53.980469 55.636719 51.921875 Z M 55.636719 51.921875 " fill-opacity="1" fill-rule="nonzero"/><g clip-path="url(#d7380e7585)"><path fill="#53c1de" d="M 64.316406 44.992188 C 65.132812 41.789062 66.15625 35.847656 62.542969 33.835938 C 58.949219 31.828125 54.269531 35.671875 51.796875 37.976562 C 49.332031 35.695312 44.523438 31.871094 40.910156 33.890625 C 37.316406 35.902344 38.425781 41.742188 39.257812 44.964844 C 35.90625 45.886719 30.15625 47.867188 30.15625 51.921875 C 30.15625 55.960938 35.898438 58.117188 39.234375 59.039062 C 38.394531 62.277344 37.34375 68.035156 40.941406 70.042969 C 44.566406 72.0625 49.363281 68.328125 51.855469 65.996094 C 54.34375 68.316406 58.980469 72.074219 62.578125 70.0625 C 66.183594 68.042969 65.246094 62.183594 64.410156 58.941406 C 67.644531 58.019531 73.398438 55.910156 73.398438 51.921875 C 73.398438 47.90625 67.617188 45.910156 64.316406 44.992188 Z M 63.90625 57.222656 C 63.359375 55.550781 62.621094 53.769531 61.71875 51.929688 C 62.582031 50.132812 63.289062 48.375 63.824219 46.710938 C 66.242188 47.390625 71.550781 48.9375 71.550781 51.921875 C 71.550781 54.929688 66.457031 56.492188 63.90625 57.222656 Z M 61.652344 68.515625 C 58.964844 70.019531 54.980469 66.425781 53.144531 64.714844 C 54.363281 63.429688 55.578125 61.929688 56.769531 60.265625 C 58.859375 60.089844 60.832031 59.796875 62.625 59.394531 C 63.210938 61.6875 64.347656 67.007812 61.652344 68.515625 Z M 41.867188 68.496094 C 39.183594 67 40.410156 61.863281 41.023438 59.476562 C 42.796875 59.851562 44.753906 60.125 46.851562 60.289062 C 48.046875 61.917969 49.300781 63.414062 50.5625 64.722656 C 49.003906 66.183594 44.5625 70 41.867188 68.496094 Z M 32.003906 51.921875 C 32.003906 48.898438 37.28125 47.359375 39.753906 46.683594 C 40.296875 48.386719 41.003906 50.164062 41.863281 51.964844 C 40.996094 53.789062 40.273438 55.597656 39.730469 57.316406 C 37.367188 56.664062 32.003906 54.941406 32.003906 51.921875 Z M 41.835938 35.433594 C 44.53125 33.925781 48.714844 37.597656 50.503906 39.253906 C 49.246094 40.554688 48.003906 42.039062 46.820312 43.660156 C 44.785156 43.839844 42.839844 44.132812 41.050781 44.523438 C 40.378906 41.925781 39.144531 36.941406 41.835938 35.433594 Z M 58.089844 45.597656 C 59.46875 45.765625 60.789062 45.992188 62.03125 46.265625 C 61.660156 47.417969 61.195312 48.625 60.648438 49.863281 C 59.855469 48.410156 59.003906 46.984375 58.089844 45.597656 Z M 51.796875 40.527344 C 52.648438 41.421875 53.503906 42.417969 54.34375 43.496094 C 52.640625 43.417969 50.933594 43.417969 49.230469 43.496094 C 50.070312 42.425781 50.933594 41.429688 51.796875 40.527344 Z M 42.921875 49.863281 C 42.382812 48.628906 41.925781 47.417969 41.546875 46.246094 C 42.78125 45.980469 44.097656 45.761719 45.46875 45.597656 C 44.550781 46.980469 43.703125 48.402344 42.921875 49.863281 Z M 45.507812 58.371094 C 44.089844 58.21875 42.757812 58.011719 41.523438 57.753906 C 41.90625 56.5625 42.375 55.320312 42.925781 54.0625 C 43.714844 55.539062 44.578125 56.976562 45.507812 58.371094 Z M 51.847656 63.4375 C 50.972656 62.523438 50.101562 61.515625 49.246094 60.429688 C 50.960938 60.492188 52.675781 60.492188 54.386719 60.417969 C 53.546875 61.527344 52.695312 62.539062 51.847656 63.4375 Z M 60.664062 54 C 61.242188 55.273438 61.730469 56.503906 62.117188 57.675781 C 60.863281 57.953125 59.511719 58.175781 58.085938 58.339844 C 59.003906 56.925781 59.871094 55.480469 60.664062 54 Z M 55.738281 58.554688 C 53.117188 58.738281 50.480469 58.734375 47.863281 58.570312 C 46.375 56.46875 45.046875 54.257812 43.902344 51.964844 C 45.042969 49.671875 46.359375 47.464844 47.839844 45.367188 C 50.460938 45.175781 53.101562 45.175781 55.722656 45.367188 C 57.191406 47.46875 58.503906 49.667969 59.667969 51.9375 C 58.519531 54.226562 57.195312 56.4375 55.738281 58.554688 Z M 61.621094 35.382812 C 64.316406 36.882812 63.117188 42.222656 62.527344 44.542969 C 60.734375 44.144531 58.785156 43.847656 56.746094 43.660156 C 55.558594 42.023438 54.328125 40.539062 53.09375 39.25 C 54.902344 37.5625 58.953125 33.894531 61.621094 35.382812 Z M 61.621094 35.382812 " fill-opacity="1" fill-rule="evenodd"/></g></svg>