<svg xmlns="http://www.w3.org/2000/svg" xmlns:xlink="http://www.w3.org/1999/xlink" width="165" zoomAndPan="magnify" viewBox="0 0 123.75 123.000003" height="164" preserveAspectRatio="xMidYMid meet" version="1.0"><defs><clipPath id="059e01fa1b"><path d="M 0.375 0 L 103.472656 0 L 103.472656 103.097656 L 0.375 103.097656 Z M 0.375 0 " clip-rule="nonzero"/></clipPath><clipPath id="56aa7fc055"><path d="M 51.925781 0 C 23.453125 0 0.375 23.078125 0.375 51.550781 C 0.375 80.019531 23.453125 103.097656 51.925781 103.097656 C 80.394531 103.097656 103.472656 80.019531 103.472656 51.550781 C 103.472656 23.078125 80.394531 0 51.925781 0 Z M 51.925781 0 " clip-rule="nonzero"/></clipPath><clipPath id="ef14d14224"><path d="M 24 4 L 102 4 L 102 102 L 24 102 Z M 24 4 " clip-rule="nonzero"/></clipPath><clipPath id="10dfa0d2c2"><path d="M 122.535156 31.414062 L 73.414062 121.5625 L 24.417969 94.867188 L 73.542969 4.714844 Z M 122.535156 31.414062 " clip-rule="nonzero"/></clipPath><clipPath id="5e0302e144"><path d="M 122.535156 31.414062 L 73.414062 121.5625 L 24.417969 94.867188 L 73.542969 4.714844 Z M 122.535156 31.414062 " clip-rule="nonzero"/></clipPath><clipPath id="85d49c4281"><path d="M 30 36.167969 L 73.84375 36.167969 L 73.84375 66.667969 L 30 66.667969 Z M 30 36.167969 " clip-rule="nonzero"/></clipPath></defs><g clip-path="url(#059e01fa1b)"><g clip-path="url(#56aa7fc055)"><path fill="#fafafa" d="M 0.375 0 L 103.472656 0 L 103.472656 103.097656 L 0.375 103.097656 Z M 0.375 0 " fill-opacity="1" fill-rule="nonzero"/></g></g><g clip-path="url(#ef14d14224)"><g clip-path="url(#10dfa0d2c2)"><g clip-path="url(#5e0302e144)"><path fill="#d5d5d5" d="M 24.722656 95.097656 L 73.875 4.898438 C 89.746094 14.054688 99.253906 27.277344 100.832031 45.316406 C 102.675781 66.449219 94.269531 83.164062 76.167969 94.167969 C 59.636719 104.21875 42.386719 103.902344 24.722656 95.101562 Z M 24.722656 95.097656 " fill-opacity="1" fill-rule="nonzero"/></g></g></g><g clip-path="url(#85d49c4281)"><path fill="#2196f3" d="M 52.699219 66.808594 C 46.757812 66.808594 43.902344 63.964844 41.8125 61.886719 C 41.046875 60.925781 40.089844 60.214844 38.953125 59.75 C 37.703125 59.445312 36.015625 59.425781 34.082031 61.953125 C 33.929688 62.15625 33.746094 62.324219 33.539062 62.460938 C 33.328125 62.597656 33.097656 62.695312 32.855469 62.753906 C 32.609375 62.8125 32.363281 62.828125 32.113281 62.800781 C 31.863281 62.773438 31.625 62.703125 31.398438 62.59375 C 31.171875 62.484375 30.972656 62.339844 30.792969 62.164062 C 30.617188 61.984375 30.476562 61.78125 30.371094 61.550781 C 30.265625 61.324219 30.199219 61.085938 30.175781 60.835938 C 30.152344 60.585938 30.171875 60.335938 30.234375 60.09375 C 31.84375 53.789062 36.09375 50.457031 42.523438 50.457031 C 48.464844 50.457031 51.324219 53.300781 53.410156 55.378906 C 54.179688 56.339844 55.132812 57.050781 56.273438 57.515625 C 57.523438 57.820312 59.207031 57.839844 61.144531 55.3125 C 61.296875 55.109375 61.476562 54.941406 61.6875 54.804688 C 61.898438 54.667969 62.125 54.570312 62.371094 54.511719 C 62.617188 54.453125 62.863281 54.4375 63.113281 54.464844 C 63.363281 54.492188 63.601562 54.5625 63.828125 54.671875 C 64.054688 54.78125 64.253906 54.925781 64.429688 55.101562 C 64.605469 55.28125 64.75 55.484375 64.855469 55.714844 C 64.960938 55.941406 65.023438 56.179688 65.046875 56.429688 C 65.070312 56.679688 65.050781 56.929688 64.988281 57.171875 C 63.382812 63.476562 59.132812 66.808594 52.699219 66.808594 Z M 39.082031 55.339844 C 39.386719 55.382812 39.691406 55.441406 39.992188 55.515625 C 41.941406 56.132812 43.574219 57.226562 44.886719 58.792969 C 46.777344 60.675781 48.558594 62.449219 52.699219 62.449219 C 53.878906 62.472656 55.027344 62.300781 56.144531 61.925781 C 55.839844 61.882812 55.535156 61.824219 55.234375 61.75 C 53.28125 61.132812 51.652344 60.039062 50.339844 58.472656 C 48.449219 56.589844 46.664062 54.816406 42.523438 54.816406 C 41.347656 54.792969 40.199219 54.964844 39.082031 55.339844 Z M 61.421875 52.636719 C 55.480469 52.636719 52.621094 49.789062 50.535156 47.710938 C 49.765625 46.75 48.8125 46.039062 47.675781 45.578125 C 46.425781 45.269531 44.738281 45.25 42.804688 47.78125 C 42.652344 47.980469 42.46875 48.148438 42.257812 48.285156 C 42.050781 48.421875 41.820312 48.519531 41.578125 48.578125 C 41.332031 48.636719 41.085938 48.652344 40.835938 48.625 C 40.585938 48.597656 40.347656 48.53125 40.121094 48.421875 C 39.894531 48.3125 39.695312 48.167969 39.515625 47.988281 C 39.339844 47.808594 39.199219 47.605469 39.09375 47.378906 C 38.988281 47.148438 38.921875 46.910156 38.898438 46.660156 C 38.875 46.410156 38.894531 46.164062 38.957031 45.917969 C 40.566406 39.613281 44.816406 36.28125 51.246094 36.28125 C 57.1875 36.28125 60.046875 39.128906 62.132812 41.207031 C 62.902344 42.164062 63.855469 42.875 64.996094 43.339844 C 66.246094 43.644531 67.929688 43.667969 69.867188 41.136719 C 70.019531 40.9375 70.199219 40.769531 70.410156 40.632812 C 70.621094 40.496094 70.847656 40.398438 71.09375 40.339844 C 71.339844 40.28125 71.585938 40.265625 71.835938 40.292969 C 72.085938 40.320312 72.324219 40.386719 72.550781 40.496094 C 72.777344 40.605469 72.976562 40.75 73.152344 40.929688 C 73.328125 41.109375 73.46875 41.3125 73.578125 41.539062 C 73.683594 41.769531 73.746094 42.007812 73.769531 42.257812 C 73.792969 42.507812 73.773438 42.753906 73.710938 42.996094 C 72.105469 49.304688 67.855469 52.636719 61.421875 52.636719 Z M 47.804688 41.167969 C 48.109375 41.210938 48.414062 41.269531 48.714844 41.34375 C 50.664062 41.957031 52.296875 43.050781 53.609375 44.621094 C 55.417969 46.421875 57.28125 48.273438 61.421875 48.273438 C 62.601562 48.300781 63.75 48.125 64.867188 47.75 C 64.558594 47.707031 64.257812 47.648438 63.957031 47.574219 C 62.003906 46.960938 60.375 45.867188 59.0625 44.296875 C 57.171875 42.417969 55.386719 40.644531 51.246094 40.644531 C 50.070312 40.617188 48.921875 40.792969 47.804688 41.167969 Z M 47.804688 41.167969 " fill-opacity="1" fill-rule="nonzero"/></g></svg>