<svg xmlns="http://www.w3.org/2000/svg" xmlns:xlink="http://www.w3.org/1999/xlink" width="432" zoomAndPan="magnify" viewBox="0 0 324 323.999988" height="432" preserveAspectRatio="xMidYMid meet" version="1.0"><path fill="#000000" d="M 164.621094 107.539062 C 153.855469 107.433594 143.132812 106.699219 132.453125 105.335938 C 121.773438 103.972656 111.210938 101.992188 100.761719 99.390625 C 90.316406 96.789062 80.054688 93.589844 69.984375 89.789062 C 59.910156 85.984375 50.09375 81.609375 40.535156 76.65625 C 40.125 76.457031 39.742188 76.222656 39.378906 75.949219 C 39.019531 75.671875 38.6875 75.367188 38.386719 75.027344 C 38.085938 74.6875 37.824219 74.320312 37.59375 73.929688 C 37.367188 73.535156 37.179688 73.125 37.03125 72.695312 C 36.882812 72.269531 36.78125 71.828125 36.71875 71.378906 C 36.660156 70.929688 36.640625 70.476562 36.671875 70.023438 C 36.699219 69.570312 36.773438 69.125 36.886719 68.6875 C 37.003906 68.25 37.164062 67.828125 37.363281 67.417969 C 37.574219 67.023438 37.820312 66.652344 38.105469 66.304688 C 38.386719 65.953125 38.699219 65.636719 39.042969 65.347656 C 39.386719 65.058594 39.753906 64.804688 40.144531 64.585938 C 40.539062 64.367188 40.945312 64.1875 41.375 64.050781 C 41.800781 63.910156 42.234375 63.8125 42.679688 63.753906 C 43.125 63.699219 43.570312 63.683594 44.019531 63.710938 C 44.46875 63.742188 44.910156 63.8125 45.34375 63.925781 C 45.777344 64.039062 46.195312 64.191406 46.601562 64.386719 C 51.144531 66.785156 55.757812 69.042969 60.441406 71.164062 C 65.121094 73.28125 69.863281 75.257812 74.664062 77.089844 C 79.464844 78.917969 84.320312 80.601562 89.222656 82.140625 C 94.125 83.675781 99.070312 85.0625 104.058594 86.296875 C 109.046875 87.53125 114.070312 88.617188 119.121094 89.546875 C 124.175781 90.476562 129.253906 91.253906 134.355469 91.878906 C 139.457031 92.5 144.570312 92.96875 149.699219 93.277344 C 154.828125 93.589844 159.964844 93.746094 165.101562 93.746094 C 170.242188 93.746094 175.375 93.589844 180.503906 93.277344 C 185.632812 92.96875 190.75 92.5 195.851562 91.878906 C 200.949219 91.253906 206.027344 90.476562 211.082031 89.546875 C 216.136719 88.617188 221.15625 87.53125 226.144531 86.296875 C 231.132812 85.0625 236.078125 83.675781 240.980469 82.140625 C 245.886719 80.601562 250.738281 78.917969 255.539062 77.089844 C 260.339844 75.257812 265.082031 73.28125 269.765625 71.164062 C 274.445312 69.042969 279.058594 66.785156 283.601562 64.386719 C 284.007812 64.191406 284.425781 64.039062 284.863281 63.925781 C 285.296875 63.8125 285.738281 63.742188 286.183594 63.710938 C 286.632812 63.683594 287.078125 63.699219 287.523438 63.753906 C 287.96875 63.8125 288.40625 63.910156 288.832031 64.050781 C 289.257812 64.1875 289.667969 64.367188 290.058594 64.585938 C 290.449219 64.804688 290.816406 65.058594 291.160156 65.347656 C 291.503906 65.636719 291.816406 65.953125 292.101562 66.304688 C 292.382812 66.652344 292.628906 67.023438 292.839844 67.417969 C 293.039062 67.828125 293.199219 68.25 293.316406 68.6875 C 293.433594 69.125 293.503906 69.570312 293.53125 70.023438 C 293.5625 70.476562 293.546875 70.929688 293.484375 71.378906 C 293.425781 71.828125 293.320312 72.269531 293.171875 72.695312 C 293.027344 73.125 292.839844 73.535156 292.609375 73.929688 C 292.382812 74.320312 292.117188 74.6875 291.816406 75.027344 C 291.515625 75.367188 291.183594 75.671875 290.824219 75.949219 C 290.460938 76.222656 290.078125 76.457031 289.667969 76.65625 C 280.035156 81.640625 270.144531 86.039062 259.992188 89.855469 C 249.839844 93.675781 239.5 96.882812 228.96875 99.484375 C 218.4375 102.085938 207.792969 104.058594 197.03125 105.40625 C 186.269531 106.753906 175.464844 107.464844 164.621094 107.539062 Z M 164.621094 107.539062 " fill-opacity="1" fill-rule="nonzero"/><path fill="#000000" d="M 162.6875 324.828125 C 160.035156 324.828125 157.382812 324.761719 154.734375 324.632812 C 152.082031 324.5 149.4375 324.304688 146.796875 324.046875 C 144.15625 323.785156 141.523438 323.460938 138.898438 323.074219 C 136.273438 322.683594 133.660156 322.230469 131.058594 321.710938 C 128.457031 321.195312 125.867188 320.613281 123.292969 319.96875 C 120.71875 319.324219 118.164062 318.617188 115.625 317.84375 C 113.082031 317.074219 110.566406 316.242188 108.066406 315.347656 C 105.566406 314.457031 103.09375 313.5 100.640625 312.484375 C 98.191406 311.46875 95.765625 310.394531 93.367188 309.261719 C 90.96875 308.125 88.597656 306.933594 86.257812 305.683594 C 83.917969 304.429688 81.609375 303.125 79.332031 301.757812 C 77.058594 300.394531 74.816406 298.976562 72.609375 297.503906 C 70.402344 296.027344 68.234375 294.5 66.105469 292.917969 C 63.972656 291.339844 61.882812 289.707031 59.832031 288.023438 C 57.777344 286.339844 55.769531 284.609375 53.804688 282.824219 C 51.839844 281.042969 49.917969 279.214844 48.039062 277.339844 C 46.164062 275.460938 44.335938 273.539062 42.554688 271.574219 C 40.769531 269.609375 39.039062 267.601562 37.355469 265.546875 C 35.671875 263.496094 34.039062 261.40625 32.460938 259.273438 C 30.878906 257.144531 29.351562 254.972656 27.875 252.769531 C 26.402344 250.5625 24.984375 248.320312 23.617188 246.042969 C 22.253906 243.769531 20.949219 241.460938 19.695312 239.121094 C 18.445312 236.78125 17.253906 234.410156 16.117188 232.011719 C 14.984375 229.613281 13.910156 227.1875 12.894531 224.738281 C 11.878906 222.285156 10.921875 219.808594 10.03125 217.3125 C 9.136719 214.8125 8.304688 212.292969 7.53125 209.753906 C 6.761719 207.214844 6.054688 204.660156 5.410156 202.085938 C 4.765625 199.511719 4.183594 196.921875 3.667969 194.320312 C 3.148438 191.71875 2.695312 189.105469 2.304688 186.480469 C 1.917969 183.855469 1.59375 181.222656 1.332031 178.582031 C 1.070312 175.941406 0.878906 173.296875 0.746094 170.644531 C 0.617188 167.996094 0.550781 165.34375 0.550781 162.6875 C 0.550781 160.035156 0.617188 157.382812 0.746094 154.734375 C 0.878906 152.082031 1.070312 149.4375 1.332031 146.796875 C 1.59375 144.15625 1.917969 141.523438 2.304688 138.898438 C 2.695312 136.273438 3.148438 133.660156 3.667969 131.058594 C 4.183594 128.457031 4.765625 125.867188 5.410156 123.292969 C 6.054688 120.71875 6.761719 118.164062 7.53125 115.625 C 8.304688 113.082031 9.136719 110.566406 10.03125 108.066406 C 10.921875 105.566406 11.878906 103.09375 12.894531 100.640625 C 13.910156 98.191406 14.984375 95.765625 16.117188 93.367188 C 17.253906 90.96875 18.445312 88.597656 19.695312 86.257812 C 20.949219 83.917969 22.253906 81.609375 23.617188 79.332031 C 24.984375 77.058594 26.402344 74.816406 27.875 72.609375 C 29.351562 70.402344 30.878906 68.234375 32.460938 66.105469 C 34.039062 63.972656 35.671875 61.882812 37.355469 59.832031 C 39.039062 57.777344 40.769531 55.769531 42.554688 53.804688 C 44.335938 51.839844 46.164062 49.917969 48.039062 48.039062 C 49.917969 46.164062 51.839844 44.335938 53.804688 42.554688 C 55.769531 40.769531 57.777344 39.039062 59.832031 37.355469 C 61.882812 35.671875 63.972656 34.039062 66.105469 32.460938 C 68.234375 30.878906 70.402344 29.351562 72.609375 27.875 C 74.816406 26.402344 77.058594 24.984375 79.332031 23.617188 C 81.609375 22.253906 83.917969 20.949219 86.257812 19.695312 C 88.597656 18.445312 90.96875 17.253906 93.367188 16.117188 C 95.765625 14.984375 98.191406 13.910156 100.640625 12.894531 C 103.09375 11.878906 105.566406 10.921875 108.066406 10.03125 C 110.566406 9.136719 113.082031 8.304688 115.625 7.53125 C 118.164062 6.761719 120.71875 6.054688 123.292969 5.410156 C 125.867188 4.765625 128.457031 4.183594 131.058594 3.667969 C 133.660156 3.148438 136.273438 2.695312 138.898438 2.304688 C 141.523438 1.917969 144.15625 1.59375 146.796875 1.332031 C 149.4375 1.070312 152.082031 0.878906 154.734375 0.746094 C 157.382812 0.617188 160.035156 0.550781 162.6875 0.550781 C 165.34375 0.550781 167.996094 0.617188 170.644531 0.746094 C 173.296875 0.878906 175.941406 1.070312 178.582031 1.332031 C 181.222656 1.59375 183.855469 1.917969 186.480469 2.304688 C 189.105469 2.695312 191.71875 3.148438 194.320312 3.667969 C 196.921875 4.183594 199.511719 4.765625 202.085938 5.410156 C 204.660156 6.054688 207.214844 6.761719 209.753906 7.53125 C 212.292969 8.304688 214.8125 9.136719 217.3125 10.03125 C 219.808594 10.921875 222.285156 11.878906 224.738281 12.894531 C 227.1875 13.910156 229.613281 14.984375 232.011719 16.117188 C 234.410156 17.253906 236.78125 18.445312 239.121094 19.695312 C 241.460938 20.949219 243.769531 22.253906 246.042969 23.617188 C 248.320312 24.984375 250.5625 26.402344 252.769531 27.875 C 254.972656 29.351562 257.144531 30.878906 259.273438 32.460938 C 261.40625 34.039062 263.496094 35.671875 265.546875 37.355469 C 267.601562 39.039062 269.609375 40.769531 271.574219 42.554688 C 273.539062 44.335938 275.460938 46.164062 277.339844 48.039062 C 279.214844 49.917969 281.042969 51.839844 282.824219 53.804688 C 284.609375 55.769531 286.339844 57.777344 288.023438 59.832031 C 289.707031 61.882812 291.339844 63.972656 292.917969 66.105469 C 294.5 68.234375 296.027344 70.402344 297.503906 72.609375 C 298.976562 74.816406 300.394531 77.058594 301.757812 79.332031 C 303.125 81.609375 304.429688 83.917969 305.683594 86.257812 C 306.933594 88.597656 308.125 90.96875 309.261719 93.367188 C 310.394531 95.765625 311.46875 98.191406 312.484375 100.640625 C 313.5 103.09375 314.457031 105.566406 315.347656 108.066406 C 316.242188 110.566406 317.074219 113.082031 317.84375 115.625 C 318.617188 118.164062 319.324219 120.71875 319.96875 123.292969 C 320.613281 125.867188 321.195312 128.457031 321.710938 131.058594 C 322.230469 133.660156 322.683594 136.273438 323.074219 138.898438 C 323.460938 141.523438 323.785156 144.15625 324.046875 146.796875 C 324.304688 149.4375 324.5 152.082031 324.632812 154.734375 C 324.761719 157.382812 324.828125 160.035156 324.828125 162.6875 C 324.855469 179.699219 322.234375 196.289062 316.96875 212.460938 C 316.828125 212.914062 316.644531 213.351562 316.421875 213.765625 C 316.195312 214.183594 315.929688 214.574219 315.628906 214.941406 C 315.324219 215.304688 314.988281 215.636719 314.621094 215.9375 C 314.253906 216.234375 313.859375 216.496094 313.441406 216.71875 C 313.019531 216.9375 312.582031 217.117188 312.128906 217.253906 C 311.675781 217.386719 311.210938 217.476562 310.738281 217.519531 C 310.265625 217.5625 309.792969 217.5625 309.320312 217.511719 C 308.851562 217.464844 308.386719 217.367188 307.933594 217.226562 C 307.480469 217.085938 307.046875 216.902344 306.628906 216.675781 C 306.214844 216.453125 305.820312 216.1875 305.457031 215.882812 C 305.09375 215.582031 304.761719 215.246094 304.460938 214.875 C 304.164062 214.507812 303.90625 214.113281 303.683594 213.691406 C 303.464844 213.273438 303.285156 212.835938 303.152344 212.382812 C 303.015625 211.925781 302.925781 211.460938 302.882812 210.988281 C 302.839844 210.519531 302.84375 210.046875 302.894531 209.574219 C 302.945312 209.101562 303.039062 208.640625 303.179688 208.1875 C 303.976562 205.722656 304.707031 203.234375 305.371094 200.730469 C 306.035156 198.226562 306.632812 195.707031 307.164062 193.171875 C 307.695312 190.636719 308.164062 188.085938 308.5625 185.527344 C 308.960938 182.96875 309.292969 180.398438 309.554688 177.820312 C 309.820312 175.242188 310.015625 172.660156 310.144531 170.074219 C 310.273438 167.484375 310.335938 164.894531 310.328125 162.304688 C 310.324219 159.714844 310.246094 157.125 310.105469 154.539062 C 309.964844 151.949219 309.753906 149.371094 309.476562 146.792969 C 309.199219 144.21875 308.851562 141.648438 308.441406 139.09375 C 308.027344 136.535156 307.550781 133.988281 307.003906 131.457031 C 306.457031 128.921875 305.847656 126.40625 305.167969 123.90625 C 304.492188 121.402344 303.75 118.921875 302.941406 116.460938 C 302.136719 114 301.265625 111.558594 300.328125 109.144531 C 299.394531 106.726562 298.394531 104.335938 297.335938 101.972656 C 296.273438 99.609375 295.152344 97.273438 293.96875 94.96875 C 292.789062 92.664062 291.546875 90.390625 290.242188 88.152344 C 288.941406 85.910156 287.582031 83.707031 286.164062 81.535156 C 284.746094 79.367188 283.273438 77.238281 281.746094 75.144531 C 280.214844 73.054688 278.632812 71.003906 276.996094 68.996094 C 275.359375 66.984375 273.671875 65.023438 271.933594 63.101562 C 270.195312 61.179688 268.40625 59.308594 266.566406 57.480469 C 264.730469 55.652344 262.847656 53.875 260.914062 52.148438 C 258.984375 50.421875 257.011719 48.746094 254.992188 47.121094 C 252.972656 45.496094 250.914062 43.925781 248.8125 42.410156 C 246.710938 40.890625 244.574219 39.429688 242.394531 38.027344 C 240.21875 36.621094 238.003906 35.277344 235.757812 33.988281 C 233.507812 32.699219 231.230469 31.46875 228.917969 30.300781 C 226.605469 29.132812 224.265625 28.023438 221.894531 26.976562 C 219.523438 25.929688 217.128906 24.949219 214.707031 24.027344 C 212.285156 23.105469 209.839844 22.25 207.371094 21.457031 C 204.90625 20.664062 202.421875 19.933594 199.914062 19.273438 C 197.410156 18.609375 194.890625 18.015625 192.355469 17.484375 C 189.816406 16.953125 187.269531 16.488281 184.710938 16.09375 C 182.148438 15.695312 179.578125 15.367188 177 15.101562 C 174.425781 14.839844 171.839844 14.644531 169.253906 14.519531 C 166.664062 14.390625 164.078125 14.332031 161.484375 14.339844 C 158.894531 14.351562 156.304688 14.425781 153.71875 14.570312 C 151.132812 14.714844 148.550781 14.925781 145.972656 15.207031 C 143.398438 15.484375 140.832031 15.832031 138.273438 16.246094 C 135.714844 16.660156 133.171875 17.140625 130.636719 17.6875 C 128.105469 18.234375 125.589844 18.847656 123.089844 19.527344 C 120.589844 20.207031 118.109375 20.953125 115.644531 21.761719 C 113.183594 22.570312 110.746094 23.445312 108.332031 24.378906 C 105.914062 25.316406 103.527344 26.316406 101.164062 27.378906 C 98.800781 28.441406 96.464844 29.566406 94.160156 30.75 C 91.855469 31.933594 89.585938 33.179688 87.34375 34.480469 C 85.105469 35.785156 82.902344 37.144531 80.734375 38.566406 C 78.566406 39.984375 76.4375 41.457031 74.347656 42.988281 C 72.257812 44.519531 70.207031 46.105469 68.199219 47.742188 C 66.191406 49.378906 64.226562 51.070312 62.308594 52.808594 C 60.390625 54.550781 58.519531 56.339844 56.691406 58.179688 C 54.867188 60.019531 53.089844 61.902344 51.363281 63.835938 C 49.636719 65.769531 47.964844 67.742188 46.339844 69.761719 C 44.71875 71.78125 43.148438 73.84375 41.632812 75.945312 C 40.117188 78.046875 38.660156 80.1875 37.257812 82.367188 C 35.855469 84.542969 34.507812 86.757812 33.222656 89.007812 C 31.933594 91.253906 30.707031 93.535156 29.539062 95.847656 C 28.371094 98.164062 27.265625 100.503906 26.222656 102.875 C 25.175781 105.246094 24.195312 107.644531 23.277344 110.066406 C 22.355469 112.488281 21.503906 114.933594 20.710938 117.402344 C 19.921875 119.867188 19.195312 122.355469 18.535156 124.859375 C 17.871094 127.363281 17.277344 129.886719 16.75 132.421875 C 16.222656 134.957031 15.757812 137.507812 15.363281 140.066406 C 14.96875 142.628906 14.640625 145.199219 14.378906 147.777344 C 14.121094 150.355469 13.925781 152.9375 13.800781 155.523438 C 13.675781 158.113281 13.621094 160.703125 13.628906 163.292969 C 13.640625 165.882812 13.71875 168.472656 13.863281 171.058594 C 14.011719 173.648438 14.226562 176.226562 14.507812 178.804688 C 14.789062 181.378906 15.136719 183.945312 15.550781 186.503906 C 15.96875 189.0625 16.449219 191.605469 17 194.136719 C 17.550781 196.667969 18.164062 199.1875 18.84375 201.6875 C 19.527344 204.183594 20.273438 206.664062 21.082031 209.125 C 21.894531 211.585938 22.769531 214.023438 23.707031 216.441406 C 24.648438 218.855469 25.648438 221.242188 26.710938 223.605469 C 27.777344 225.96875 28.902344 228.300781 30.085938 230.605469 C 31.273438 232.910156 32.519531 235.179688 33.824219 237.417969 C 35.128906 239.65625 36.492188 241.859375 37.914062 244.027344 C 39.332031 246.191406 40.808594 248.320312 42.339844 250.410156 C 43.875 252.5 45.460938 254.546875 47.097656 256.554688 C 48.738281 258.5625 50.429688 260.523438 52.171875 262.441406 C 53.914062 264.359375 55.703125 266.230469 57.542969 268.054688 C 59.382812 269.878906 61.269531 271.652344 63.203125 273.378906 C 65.136719 275.101562 67.113281 276.777344 69.136719 278.398438 C 71.15625 280.019531 73.21875 281.585938 75.320312 283.101562 C 77.425781 284.613281 79.566406 286.070312 81.746094 287.472656 C 83.925781 288.875 86.140625 290.21875 88.386719 291.503906 C 90.636719 292.789062 92.921875 294.011719 95.234375 295.179688 C 97.546875 296.34375 99.890625 297.449219 102.261719 298.492188 C 104.632812 299.535156 107.03125 300.515625 109.457031 301.433594 C 111.878906 302.347656 114.324219 303.203125 116.792969 303.992188 C 119.257812 304.78125 121.746094 305.503906 124.253906 306.164062 C 126.757812 306.824219 129.28125 307.417969 131.816406 307.941406 C 134.351562 308.46875 136.902344 308.929688 139.464844 309.324219 C 142.023438 309.714844 144.59375 310.042969 147.171875 310.300781 C 149.75 310.558594 152.332031 310.75 154.921875 310.875 C 157.507812 310.996094 160.097656 311.050781 162.6875 311.039062 C 169.800781 311.015625 176.878906 310.507812 183.921875 309.523438 C 184.367188 309.464844 184.816406 309.449219 185.265625 309.472656 C 185.71875 309.5 186.160156 309.570312 186.597656 309.683594 C 187.035156 309.796875 187.457031 309.949219 187.863281 310.140625 C 188.269531 310.335938 188.65625 310.566406 189.019531 310.832031 C 189.382812 311.101562 189.71875 311.398438 190.023438 311.730469 C 190.328125 312.0625 190.597656 312.421875 190.835938 312.804688 C 191.070312 313.1875 191.269531 313.59375 191.429688 314.015625 C 191.585938 314.4375 191.703125 314.871094 191.78125 315.3125 C 191.832031 315.765625 191.835938 316.214844 191.800781 316.667969 C 191.765625 317.121094 191.6875 317.566406 191.566406 318.003906 C 191.449219 318.4375 191.289062 318.863281 191.089844 319.269531 C 190.886719 319.675781 190.652344 320.058594 190.378906 320.421875 C 190.105469 320.785156 189.800781 321.117188 189.464844 321.421875 C 189.128906 321.726562 188.765625 321.996094 188.378906 322.230469 C 187.992188 322.464844 187.585938 322.664062 187.160156 322.820312 C 186.734375 322.980469 186.300781 323.097656 185.851562 323.171875 C 178.171875 324.277344 170.449219 324.828125 162.6875 324.828125 Z M 162.6875 324.828125 " fill-opacity="1" fill-rule="nonzero"/><path fill="#000000" d="M 162.6875 324.828125 C 162.238281 324.828125 161.789062 324.78125 161.34375 324.695312 C 160.902344 324.605469 160.46875 324.476562 160.050781 324.300781 C 159.632812 324.128906 159.234375 323.917969 158.859375 323.664062 C 158.484375 323.414062 158.136719 323.128906 157.816406 322.808594 C 157.496094 322.488281 157.207031 322.140625 156.957031 321.761719 C 156.707031 321.386719 156.492188 320.988281 156.320312 320.570312 C 156.148438 320.152344 156.015625 319.722656 155.929688 319.277344 C 155.839844 318.835938 155.796875 318.386719 155.796875 317.933594 L 155.796875 7.445312 C 155.796875 6.992188 155.839844 6.542969 155.929688 6.101562 C 156.015625 5.65625 156.148438 5.226562 156.320312 4.808594 C 156.492188 4.390625 156.707031 3.992188 156.957031 3.613281 C 157.207031 3.238281 157.496094 2.890625 157.816406 2.570312 C 158.136719 2.25 158.484375 1.964844 158.859375 1.714844 C 159.234375 1.460938 159.632812 1.25 160.050781 1.078125 C 160.46875 0.902344 160.902344 0.773438 161.34375 0.683594 C 161.789062 0.59375 162.238281 0.550781 162.6875 0.550781 C 163.140625 0.550781 163.589844 0.59375 164.035156 0.683594 C 164.476562 0.773438 164.910156 0.902344 165.328125 1.078125 C 165.746094 1.25 166.144531 1.460938 166.519531 1.714844 C 166.894531 1.964844 167.242188 2.25 167.5625 2.570312 C 167.882812 2.890625 168.167969 3.238281 168.421875 3.613281 C 168.671875 3.992188 168.886719 4.390625 169.058594 4.808594 C 169.230469 5.226562 169.363281 5.65625 169.449219 6.101562 C 169.539062 6.542969 169.582031 6.992188 169.582031 7.445312 L 169.582031 317.933594 C 169.582031 318.386719 169.539062 318.835938 169.449219 319.277344 C 169.363281 319.722656 169.230469 320.152344 169.058594 320.570312 C 168.886719 320.988281 168.671875 321.386719 168.421875 321.761719 C 168.167969 322.140625 167.882812 322.488281 167.5625 322.808594 C 167.242188 323.128906 166.894531 323.414062 166.519531 323.664062 C 166.144531 323.917969 165.746094 324.128906 165.328125 324.300781 C 164.910156 324.476562 164.476562 324.605469 164.035156 324.695312 C 163.589844 324.78125 163.140625 324.828125 162.6875 324.828125 Z M 162.6875 324.828125 " fill-opacity="1" fill-rule="nonzero"/><path fill="#000000" d="M 317.933594 169.582031 L 7.445312 169.582031 C 6.992188 169.582031 6.542969 169.539062 6.101562 169.449219 C 5.65625 169.363281 5.226562 169.230469 4.808594 169.058594 C 4.390625 168.886719 3.992188 168.671875 3.613281 168.421875 C 3.238281 168.167969 2.890625 167.882812 2.570312 167.5625 C 2.25 167.242188 1.964844 166.894531 1.714844 166.519531 C 1.460938 166.144531 1.25 165.746094 1.078125 165.328125 C 0.902344 164.910156 0.773438 164.476562 0.683594 164.035156 C 0.59375 163.589844 0.550781 163.140625 0.550781 162.6875 C 0.550781 162.238281 0.59375 161.789062 0.683594 161.34375 C 0.773438 160.902344 0.902344 160.46875 1.078125 160.050781 C 1.25 159.632812 1.460938 159.234375 1.714844 158.859375 C 1.964844 158.484375 2.25 158.136719 2.570312 157.816406 C 2.890625 157.496094 3.238281 157.207031 3.613281 156.957031 C 3.992188 156.707031 4.390625 156.492188 4.808594 156.320312 C 5.226562 156.148438 5.65625 156.015625 6.101562 155.929688 C 6.542969 155.839844 6.992188 155.796875 7.445312 155.796875 L 317.933594 155.796875 C 318.386719 155.796875 318.835938 155.839844 319.277344 155.929688 C 319.722656 156.015625 320.152344 156.148438 320.570312 156.320312 C 320.988281 156.492188 321.386719 156.707031 321.761719 156.957031 C 322.140625 157.207031 322.488281 157.496094 322.808594 157.816406 C 323.128906 158.136719 323.414062 158.484375 323.664062 158.859375 C 323.917969 159.234375 324.128906 159.632812 324.300781 160.050781 C 324.476562 160.46875 324.605469 160.902344 324.695312 161.34375 C 324.78125 161.789062 324.828125 162.238281 324.828125 162.6875 C 324.828125 163.140625 324.78125 163.589844 324.695312 164.035156 C 324.605469 164.476562 324.476562 164.910156 324.300781 165.328125 C 324.128906 165.746094 323.917969 166.144531 323.664062 166.519531 C 323.414062 166.894531 323.128906 167.242188 322.808594 167.5625 C 322.488281 167.882812 322.140625 168.167969 321.761719 168.421875 C 321.386719 168.671875 320.988281 168.886719 320.570312 169.058594 C 320.152344 169.230469 319.722656 169.363281 319.277344 169.449219 C 318.835938 169.539062 318.386719 169.582031 317.933594 169.582031 Z M 317.933594 169.582031 " fill-opacity="1" fill-rule="nonzero"/><path fill="#000000" d="M 162.6875 324.828125 C 160.035156 324.828125 157.382812 324.761719 154.734375 324.632812 C 152.082031 324.5 149.4375 324.304688 146.796875 324.046875 C 144.15625 323.785156 141.523438 323.460938 138.898438 323.074219 C 136.273438 322.683594 133.660156 322.230469 131.058594 321.710938 C 128.457031 321.195312 125.867188 320.613281 123.292969 319.96875 C 120.71875 319.324219 118.164062 318.617188 115.625 317.84375 C 113.082031 317.074219 110.566406 316.242188 108.066406 315.347656 C 105.566406 314.457031 103.09375 313.5 100.640625 312.484375 C 98.191406 311.46875 95.765625 310.394531 93.367188 309.261719 C 90.96875 308.125 88.597656 306.933594 86.257812 305.683594 C 83.917969 304.429688 81.609375 303.125 79.332031 301.757812 C 77.058594 300.394531 74.816406 298.976562 72.609375 297.503906 C 70.402344 296.027344 68.234375 294.5 66.105469 292.917969 C 63.972656 291.339844 61.882812 289.707031 59.832031 288.023438 C 57.777344 286.339844 55.769531 284.609375 53.804688 282.824219 C 51.839844 281.042969 49.917969 279.214844 48.039062 277.339844 C 46.164062 275.460938 44.335938 273.539062 42.554688 271.574219 C 40.769531 269.609375 39.039062 267.601562 37.355469 265.546875 C 35.671875 263.496094 34.039062 261.40625 32.460938 259.273438 C 30.878906 257.144531 29.351562 254.972656 27.875 252.769531 C 26.402344 250.5625 24.984375 248.320312 23.617188 246.042969 C 22.253906 243.769531 20.949219 241.460938 19.695312 239.121094 C 18.445312 236.78125 17.253906 234.410156 16.117188 232.011719 C 14.984375 229.613281 13.910156 227.1875 12.894531 224.738281 C 11.878906 222.285156 10.921875 219.808594 10.03125 217.3125 C 9.136719 214.8125 8.304688 212.292969 7.53125 209.753906 C 6.761719 207.214844 6.054688 204.660156 5.410156 202.085938 C 4.765625 199.511719 4.183594 196.921875 3.667969 194.320312 C 3.148438 191.71875 2.695312 189.105469 2.304688 186.480469 C 1.917969 183.855469 1.59375 181.222656 1.332031 178.582031 C 1.070312 175.941406 0.878906 173.296875 0.746094 170.644531 C 0.617188 167.996094 0.550781 165.34375 0.550781 162.6875 C 0.550781 160.035156 0.617188 157.382812 0.746094 154.734375 C 0.878906 152.082031 1.070312 149.4375 1.332031 146.796875 C 1.59375 144.15625 1.917969 141.523438 2.304688 138.898438 C 2.695312 136.273438 3.148438 133.660156 3.667969 131.058594 C 4.183594 128.457031 4.765625 125.867188 5.410156 123.292969 C 6.054688 120.71875 6.761719 118.164062 7.53125 115.625 C 8.304688 113.082031 9.136719 110.566406 10.03125 108.066406 C 10.921875 105.566406 11.878906 103.09375 12.894531 100.640625 C 13.910156 98.191406 14.984375 95.765625 16.117188 93.367188 C 17.253906 90.96875 18.445312 88.597656 19.695312 86.257812 C 20.949219 83.917969 22.253906 81.609375 23.617188 79.332031 C 24.984375 77.058594 26.402344 74.816406 27.875 72.609375 C 29.351562 70.402344 30.878906 68.234375 32.460938 66.105469 C 34.039062 63.972656 35.671875 61.882812 37.355469 59.832031 C 39.039062 57.777344 40.769531 55.769531 42.554688 53.804688 C 44.335938 51.839844 46.164062 49.917969 48.039062 48.039062 C 49.917969 46.164062 51.839844 44.335938 53.804688 42.554688 C 55.769531 40.769531 57.777344 39.039062 59.832031 37.355469 C 61.882812 35.671875 63.972656 34.039062 66.105469 32.460938 C 68.234375 30.878906 70.402344 29.351562 72.609375 27.875 C 74.816406 26.402344 77.058594 24.984375 79.332031 23.617188 C 81.609375 22.253906 83.917969 20.949219 86.257812 19.695312 C 88.597656 18.445312 90.96875 17.253906 93.367188 16.117188 C 95.765625 14.984375 98.191406 13.910156 100.640625 12.894531 C 103.09375 11.878906 105.566406 10.921875 108.066406 10.03125 C 110.566406 9.136719 113.082031 8.304688 115.625 7.53125 C 118.164062 6.761719 120.71875 6.054688 123.292969 5.410156 C 125.867188 4.765625 128.457031 4.183594 131.058594 3.667969 C 133.660156 3.148438 136.273438 2.695312 138.898438 2.304688 C 141.523438 1.917969 144.15625 1.59375 146.796875 1.332031 C 149.4375 1.070312 152.082031 0.878906 154.734375 0.746094 C 157.382812 0.617188 160.035156 0.550781 162.6875 0.550781 C 165.34375 0.550781 167.996094 0.617188 170.644531 0.746094 C 173.296875 0.878906 175.941406 1.070312 178.582031 1.332031 C 181.222656 1.59375 183.855469 1.917969 186.480469 2.304688 C 189.105469 2.695312 191.71875 3.148438 194.320312 3.667969 C 196.921875 4.183594 199.511719 4.765625 202.085938 5.410156 C 204.660156 6.054688 207.214844 6.761719 209.753906 7.53125 C 212.292969 8.304688 214.8125 9.136719 217.3125 10.03125 C 219.808594 10.921875 222.285156 11.878906 224.738281 12.894531 C 227.1875 13.910156 229.613281 14.984375 232.011719 16.117188 C 234.410156 17.253906 236.78125 18.445312 239.121094 19.695312 C 241.460938 20.949219 243.769531 22.253906 246.042969 23.617188 C 248.320312 24.984375 250.5625 26.402344 252.769531 27.875 C 254.972656 29.351562 257.144531 30.878906 259.273438 32.460938 C 261.40625 34.039062 263.496094 35.671875 265.546875 37.355469 C 267.601562 39.039062 269.609375 40.769531 271.574219 42.554688 C 273.539062 44.335938 275.460938 46.164062 277.339844 48.039062 C 279.214844 49.917969 281.042969 51.839844 282.824219 53.804688 C 284.609375 55.769531 286.339844 57.777344 288.023438 59.832031 C 289.707031 61.882812 291.339844 63.972656 292.917969 66.105469 C 294.5 68.234375 296.027344 70.402344 297.503906 72.609375 C 298.976562 74.816406 300.394531 77.058594 301.757812 79.332031 C 303.125 81.609375 304.429688 83.917969 305.683594 86.257812 C 306.933594 88.597656 308.125 90.96875 309.261719 93.367188 C 310.394531 95.765625 311.46875 98.191406 312.484375 100.640625 C 313.5 103.09375 314.457031 105.566406 315.347656 108.066406 C 316.242188 110.566406 317.074219 113.082031 317.84375 115.625 C 318.617188 118.164062 319.324219 120.71875 319.96875 123.292969 C 320.613281 125.867188 321.195312 128.457031 321.710938 131.058594 C 322.230469 133.660156 322.683594 136.273438 323.074219 138.898438 C 323.460938 141.523438 323.785156 144.15625 324.046875 146.796875 C 324.304688 149.4375 324.5 152.082031 324.632812 154.734375 C 324.761719 157.382812 324.828125 160.035156 324.828125 162.6875 C 324.824219 165.339844 324.753906 167.992188 324.617188 170.640625 C 324.484375 173.289062 324.285156 175.933594 324.023438 178.574219 C 323.757812 181.210938 323.429688 183.84375 323.035156 186.464844 C 322.644531 189.089844 322.1875 191.699219 321.667969 194.300781 C 321.144531 196.902344 320.5625 199.488281 319.914062 202.0625 C 319.265625 204.632812 318.554688 207.1875 317.785156 209.726562 C 317.011719 212.261719 316.175781 214.777344 315.28125 217.273438 C 314.386719 219.773438 313.429688 222.246094 312.410156 224.695312 C 311.394531 227.144531 310.316406 229.566406 309.183594 231.964844 C 308.046875 234.359375 306.851562 236.726562 305.601562 239.066406 C 304.347656 241.40625 303.042969 243.710938 301.675781 245.984375 C 300.3125 248.257812 298.890625 250.5 297.417969 252.703125 C 295.941406 254.90625 294.414062 257.074219 292.835938 259.203125 C 291.253906 261.335938 289.621094 263.425781 287.9375 265.472656 C 286.257812 267.523438 284.523438 269.53125 282.742188 271.496094 C 280.960938 273.460938 279.132812 275.382812 277.257812 277.257812 C 275.382812 279.132812 273.460938 280.960938 271.496094 282.742188 C 269.53125 284.523438 267.523438 286.257812 265.472656 287.9375 C 263.425781 289.621094 261.335938 291.253906 259.203125 292.835938 C 257.074219 294.414062 254.90625 295.941406 252.703125 297.417969 C 250.5 298.890625 248.257812 300.3125 245.984375 301.675781 C 243.710938 303.042969 241.40625 304.347656 239.066406 305.601562 C 236.726562 306.851562 234.359375 308.046875 231.964844 309.183594 C 229.566406 310.316406 227.144531 311.394531 224.695312 312.410156 C 222.246094 313.429688 219.773438 314.386719 217.273438 315.28125 C 214.777344 316.175781 212.261719 317.011719 209.726562 317.785156 C 207.1875 318.554688 204.632812 319.265625 202.0625 319.914062 C 199.488281 320.5625 196.902344 321.144531 194.300781 321.667969 C 191.699219 322.1875 189.089844 322.644531 186.464844 323.035156 C 183.84375 323.429688 181.210938 323.757812 178.574219 324.023438 C 175.933594 324.285156 173.289062 324.484375 170.640625 324.617188 C 167.992188 324.753906 165.339844 324.824219 162.6875 324.828125 Z M 162.6875 14.339844 C 160.261719 14.339844 157.835938 14.398438 155.410156 14.515625 C 152.984375 14.636719 150.566406 14.816406 148.148438 15.054688 C 145.730469 15.292969 143.324219 15.589844 140.921875 15.945312 C 138.519531 16.300781 136.128906 16.714844 133.746094 17.1875 C 131.367188 17.664062 129 18.195312 126.644531 18.785156 C 124.289062 19.375 121.949219 20.023438 119.625 20.726562 C 117.300781 21.429688 114.996094 22.191406 112.710938 23.011719 C 110.425781 23.828125 108.160156 24.703125 105.917969 25.632812 C 103.675781 26.558594 101.457031 27.542969 99.261719 28.582031 C 97.066406 29.621094 94.898438 30.710938 92.757812 31.855469 C 90.617188 33 88.503906 34.195312 86.421875 35.445312 C 84.339844 36.691406 82.289062 37.992188 80.269531 39.339844 C 78.25 40.6875 76.265625 42.085938 74.316406 43.53125 C 72.367188 44.980469 70.453125 46.472656 68.578125 48.011719 C 66.699219 49.554688 64.863281 51.136719 63.0625 52.769531 C 61.265625 54.398438 59.507812 56.074219 57.789062 57.789062 C 56.074219 59.507812 54.398438 61.265625 52.769531 63.0625 C 51.136719 64.863281 49.554688 66.699219 48.011719 68.578125 C 46.472656 70.453125 44.980469 72.367188 43.53125 74.316406 C 42.085938 76.265625 40.6875 78.25 39.339844 80.269531 C 37.992188 82.289062 36.691406 84.339844 35.445312 86.421875 C 34.195312 88.503906 33 90.617188 31.855469 92.757812 C 30.710938 94.898438 29.621094 97.066406 28.582031 99.261719 C 27.542969 101.457031 26.558594 103.675781 25.632812 105.917969 C 24.703125 108.160156 23.828125 110.425781 23.011719 112.710938 C 22.191406 114.996094 21.429688 117.300781 20.726562 119.625 C 20.023438 121.949219 19.375 124.289062 18.785156 126.644531 C 18.195312 129 17.664062 131.367188 17.1875 133.746094 C 16.714844 136.128906 16.300781 138.519531 15.945312 140.921875 C 15.589844 143.324219 15.292969 145.730469 15.054688 148.148438 C 14.816406 150.566406 14.636719 152.984375 14.515625 155.410156 C 14.398438 157.835938 14.339844 160.261719 14.339844 162.6875 C 14.339844 165.117188 14.398438 167.542969 14.515625 169.96875 C 14.636719 172.394531 14.816406 174.8125 15.054688 177.230469 C 15.292969 179.644531 15.589844 182.054688 15.945312 184.457031 C 16.300781 186.859375 16.714844 189.25 17.1875 191.632812 C 17.664062 194.011719 18.195312 196.378906 18.785156 198.734375 C 19.375 201.089844 20.023438 203.429688 20.726562 205.753906 C 21.429688 208.078125 22.191406 210.382812 23.011719 212.667969 C 23.828125 214.953125 24.703125 217.21875 25.632812 219.460938 C 26.558594 221.703125 27.542969 223.921875 28.582031 226.117188 C 29.621094 228.3125 30.710938 230.480469 31.855469 232.621094 C 33 234.761719 34.195312 236.875 35.445312 238.957031 C 36.691406 241.039062 37.992188 243.089844 39.339844 245.109375 C 40.6875 247.128906 42.085938 249.113281 43.53125 251.0625 C 44.980469 253.011719 46.472656 254.925781 48.011719 256.800781 C 49.554688 258.679688 51.136719 260.515625 52.769531 262.316406 C 54.398438 264.113281 56.074219 265.871094 57.789062 267.589844 C 59.507812 269.304688 61.265625 270.980469 63.0625 272.609375 C 64.863281 274.242188 66.699219 275.824219 68.578125 277.367188 C 70.453125 278.90625 72.367188 280.398438 74.316406 281.84375 C 76.265625 283.292969 78.25 284.691406 80.269531 286.039062 C 82.289062 287.386719 84.339844 288.6875 86.421875 289.933594 C 88.503906 291.183594 90.617188 292.378906 92.757812 293.523438 C 94.898438 294.667969 97.066406 295.757812 99.261719 296.796875 C 101.457031 297.835938 103.675781 298.816406 105.917969 299.746094 C 108.160156 300.675781 110.425781 301.550781 112.710938 302.367188 C 114.996094 303.1875 117.300781 303.949219 119.625 304.652344 C 121.949219 305.355469 124.289062 306.003906 126.644531 306.59375 C 129 307.183594 131.367188 307.714844 133.746094 308.1875 C 136.128906 308.664062 138.519531 309.078125 140.921875 309.433594 C 143.324219 309.789062 145.730469 310.085938 148.148438 310.324219 C 150.566406 310.5625 152.984375 310.742188 155.410156 310.859375 C 157.835938 310.980469 160.261719 311.039062 162.6875 311.039062 C 165.117188 311.039062 167.542969 310.980469 169.96875 310.859375 C 172.394531 310.742188 174.8125 310.5625 177.230469 310.324219 C 179.644531 310.085938 182.054688 309.789062 184.457031 309.433594 C 186.859375 309.078125 189.25 308.664062 191.632812 308.1875 C 194.011719 307.714844 196.378906 307.183594 198.734375 306.59375 C 201.089844 306.003906 203.429688 305.355469 205.753906 304.652344 C 208.078125 303.949219 210.382812 303.1875 212.667969 302.367188 C 214.953125 301.550781 217.21875 300.675781 219.460938 299.746094 C 221.703125 298.816406 223.921875 297.835938 226.117188 296.796875 C 228.3125 295.757812 230.480469 294.667969 232.621094 293.523438 C 234.761719 292.378906 236.875 291.183594 238.957031 289.933594 C 241.039062 288.6875 243.089844 287.386719 245.109375 286.039062 C 247.128906 284.691406 249.113281 283.292969 251.0625 281.84375 C 253.011719 280.398438 254.925781 278.90625 256.800781 277.367188 C 258.679688 275.824219 260.515625 274.242188 262.316406 272.609375 C 264.113281 270.980469 265.871094 269.304688 267.589844 267.589844 C 269.304688 265.871094 270.980469 264.113281 272.609375 262.316406 C 274.242188 260.515625 275.824219 258.679688 277.367188 256.800781 C 278.90625 254.925781 280.398438 253.011719 281.84375 251.0625 C 283.292969 249.113281 284.691406 247.128906 286.039062 245.109375 C 287.386719 243.089844 288.6875 241.039062 289.933594 238.957031 C 291.183594 236.875 292.378906 234.761719 293.523438 232.621094 C 294.667969 230.480469 295.757812 228.3125 296.796875 226.117188 C 297.835938 223.921875 298.816406 221.703125 299.746094 219.460938 C 300.675781 217.21875 301.550781 214.953125 302.367188 212.667969 C 303.1875 210.382812 303.949219 208.078125 304.652344 205.753906 C 305.355469 203.429688 306.003906 201.089844 306.59375 198.734375 C 307.183594 196.378906 307.714844 194.011719 308.191406 191.632812 C 308.664062 189.25 309.078125 186.859375 309.433594 184.457031 C 309.789062 182.054688 310.085938 179.644531 310.324219 177.230469 C 310.5625 174.8125 310.742188 172.394531 310.859375 169.96875 C 310.980469 167.542969 311.039062 165.117188 311.039062 162.6875 C 311.035156 160.261719 310.972656 157.835938 310.847656 155.414062 C 310.726562 152.992188 310.542969 150.570312 310.300781 148.15625 C 310.058594 145.742188 309.757812 143.335938 309.398438 140.933594 C 309.039062 138.535156 308.621094 136.144531 308.144531 133.765625 C 307.667969 131.386719 307.132812 129.019531 306.539062 126.667969 C 305.949219 124.316406 305.296875 121.976562 304.589844 119.65625 C 303.882812 117.335938 303.121094 115.03125 302.300781 112.75 C 301.480469 110.464844 300.605469 108.203125 299.675781 105.960938 C 298.742188 103.71875 297.757812 101.503906 296.71875 99.308594 C 295.679688 97.117188 294.585938 94.949219 293.441406 92.8125 C 292.296875 90.671875 291.097656 88.5625 289.851562 86.480469 C 288.601562 84.402344 287.304688 82.351562 285.953125 80.335938 C 284.605469 78.316406 283.207031 76.335938 281.761719 74.386719 C 280.316406 72.4375 278.820312 70.527344 277.28125 68.652344 C 275.742188 66.773438 274.15625 64.9375 272.527344 63.140625 C 270.898438 61.34375 269.222656 59.585938 267.507812 57.871094 C 265.792969 56.152344 264.035156 54.480469 262.238281 52.851562 C 260.441406 51.222656 258.605469 49.636719 256.726562 48.097656 C 254.851562 46.558594 252.941406 45.0625 250.992188 43.617188 C 249.042969 42.171875 247.0625 40.773438 245.042969 39.425781 C 243.027344 38.074219 240.976562 36.777344 238.898438 35.527344 C 236.816406 34.277344 234.707031 33.082031 232.566406 31.9375 C 230.425781 30.792969 228.261719 29.699219 226.070312 28.660156 C 223.875 27.621094 221.660156 26.636719 219.417969 25.703125 C 217.175781 24.773438 214.914062 23.898438 212.628906 23.078125 C 210.347656 22.257812 208.042969 21.496094 205.722656 20.789062 C 203.402344 20.082031 201.0625 19.429688 198.710938 18.839844 C 196.359375 18.246094 193.992188 17.710938 191.613281 17.234375 C 189.234375 16.757812 186.84375 16.339844 184.441406 15.980469 C 182.042969 15.621094 179.636719 15.320312 177.222656 15.078125 C 174.808594 14.835938 172.386719 14.652344 169.964844 14.53125 C 167.542969 14.40625 165.117188 14.34375 162.6875 14.339844 Z M 162.6875 14.339844 " fill-opacity="1" fill-rule="nonzero"/><path fill="#000000" d="M 43.152344 263.472656 C 42.507812 263.484375 41.871094 263.402344 41.246094 263.226562 C 40.621094 263.054688 40.035156 262.796875 39.484375 262.453125 C 38.933594 262.113281 38.445312 261.699219 38.011719 261.214844 C 37.582031 260.734375 37.226562 260.199219 36.949219 259.613281 C 36.757812 259.203125 36.609375 258.78125 36.5 258.34375 C 36.390625 257.90625 36.324219 257.460938 36.300781 257.011719 C 36.273438 256.5625 36.292969 256.113281 36.355469 255.664062 C 36.417969 255.21875 36.523438 254.78125 36.667969 254.355469 C 36.816406 253.925781 37.003906 253.519531 37.226562 253.128906 C 37.453125 252.738281 37.714844 252.371094 38.007812 252.03125 C 38.304688 251.6875 38.628906 251.378906 38.984375 251.101562 C 39.339844 250.824219 39.71875 250.582031 40.121094 250.375 C 44.898438 247.859375 49.75 245.488281 54.671875 243.261719 C 59.59375 241.039062 64.578125 238.964844 69.625 237.042969 C 74.675781 235.125 79.773438 233.355469 84.929688 231.742188 C 90.085938 230.132812 95.285156 228.675781 100.527344 227.378906 C 105.769531 226.082031 111.046875 224.945312 116.359375 223.96875 C 121.671875 222.992188 127.007812 222.175781 132.371094 221.523438 C 137.730469 220.871094 143.109375 220.378906 148.5 220.054688 C 153.890625 219.726562 159.289062 219.5625 164.6875 219.5625 C 170.089844 219.5625 175.484375 219.726562 180.878906 220.054688 C 186.269531 220.378906 191.644531 220.871094 197.007812 221.523438 C 202.367188 222.175781 207.703125 222.992188 213.015625 223.96875 C 218.328125 224.945312 223.605469 226.082031 228.847656 227.378906 C 234.09375 228.675781 239.292969 230.132812 244.445312 231.742188 C 249.601562 233.355469 254.703125 235.125 259.75 237.042969 C 264.796875 238.964844 269.785156 241.039062 274.707031 243.261719 C 279.628906 245.488281 284.476562 247.859375 289.257812 250.375 C 289.664062 250.574219 290.046875 250.8125 290.410156 251.085938 C 290.769531 251.363281 291.097656 251.667969 291.398438 252.007812 C 291.699219 252.347656 291.964844 252.714844 292.191406 253.105469 C 292.421875 253.5 292.609375 253.910156 292.753906 254.339844 C 292.902344 254.765625 293.007812 255.207031 293.066406 255.65625 C 293.128906 256.105469 293.144531 256.554688 293.117188 257.007812 C 293.085938 257.460938 293.015625 257.90625 292.898438 258.34375 C 292.785156 258.785156 292.625 259.207031 292.425781 259.613281 C 292.226562 260.019531 291.992188 260.40625 291.714844 260.765625 C 291.441406 261.125 291.132812 261.457031 290.792969 261.757812 C 290.453125 262.058594 290.089844 262.320312 289.695312 262.550781 C 289.304688 262.777344 288.894531 262.964844 288.464844 263.113281 C 288.035156 263.257812 287.597656 263.363281 287.148438 263.425781 C 286.699219 263.484375 286.246094 263.5 285.792969 263.472656 C 285.34375 263.445312 284.898438 263.371094 284.457031 263.257812 C 284.019531 263.140625 283.597656 262.984375 283.191406 262.785156 C 278.644531 260.386719 274.03125 258.125 269.351562 256.007812 C 264.667969 253.886719 259.925781 251.914062 255.125 250.082031 C 250.324219 248.25 245.472656 246.566406 240.566406 245.03125 C 235.664062 243.496094 230.71875 242.109375 225.730469 240.875 C 220.742188 239.636719 215.722656 238.554688 210.667969 237.625 C 205.613281 236.691406 200.535156 235.917969 195.4375 235.292969 C 190.335938 234.671875 185.21875 234.203125 180.089844 233.890625 C 174.960938 233.582031 169.828125 233.425781 164.6875 233.425781 C 159.550781 233.425781 154.414062 233.582031 149.285156 233.890625 C 144.15625 234.203125 139.042969 234.671875 133.941406 235.292969 C 128.839844 235.917969 123.761719 236.691406 118.707031 237.625 C 113.65625 238.554688 108.632812 239.636719 103.644531 240.875 C 98.660156 242.109375 93.710938 243.496094 88.808594 245.03125 C 83.90625 246.566406 79.050781 248.25 74.25 250.082031 C 69.449219 251.914062 64.707031 253.886719 60.027344 256.007812 C 55.34375 258.125 50.730469 260.386719 46.1875 262.785156 C 45.222656 263.210938 44.210938 263.441406 43.152344 263.472656 Z M 43.152344 263.472656 " fill-opacity="1" fill-rule="nonzero"/><path fill="#000000" d="M 207.222656 316.96875 C 206.148438 317.007812 205.140625 316.777344 204.1875 316.277344 C 203.78125 316.082031 203.394531 315.84375 203.035156 315.570312 C 202.675781 315.296875 202.34375 314.988281 202.046875 314.644531 C 201.746094 314.304688 201.484375 313.9375 201.261719 313.542969 C 201.035156 313.148438 200.851562 312.734375 200.710938 312.304688 C 200.570312 311.875 200.472656 311.433594 200.417969 310.980469 C 200.367188 310.53125 200.359375 310.078125 200.398438 309.628906 C 200.4375 309.175781 200.519531 308.730469 200.644531 308.296875 C 200.773438 307.859375 200.945312 307.441406 201.15625 307.042969 C 247.617188 215.496094 247.617188 118.433594 201.15625 18.335938 C 200.953125 17.941406 200.789062 17.535156 200.667969 17.105469 C 200.542969 16.679688 200.464844 16.246094 200.425781 15.804688 C 200.390625 15.363281 200.394531 14.921875 200.445312 14.484375 C 200.492188 14.042969 200.585938 13.609375 200.71875 13.1875 C 200.855469 12.765625 201.027344 12.359375 201.242188 11.972656 C 201.457031 11.585938 201.707031 11.21875 201.992188 10.882812 C 202.277344 10.542969 202.59375 10.234375 202.941406 9.957031 C 203.289062 9.679688 203.65625 9.441406 204.050781 9.238281 C 204.460938 9.039062 204.890625 8.882812 205.332031 8.773438 C 205.773438 8.660156 206.222656 8.589844 206.679688 8.566406 C 207.132812 8.542969 207.589844 8.5625 208.039062 8.628906 C 208.492188 8.695312 208.933594 8.808594 209.363281 8.960938 C 209.792969 9.113281 210.203125 9.308594 210.59375 9.546875 C 210.984375 9.78125 211.347656 10.050781 211.683594 10.359375 C 212.023438 10.667969 212.324219 11.003906 212.59375 11.375 C 212.863281 11.742188 213.097656 12.132812 213.289062 12.546875 C 261.683594 116.640625 261.683594 217.839844 213.289062 313.246094 C 213 313.804688 212.640625 314.3125 212.214844 314.769531 C 211.789062 315.230469 211.308594 315.621094 210.773438 315.949219 C 210.238281 316.277344 209.667969 316.527344 209.066406 316.703125 C 208.464844 316.875 207.847656 316.964844 207.222656 316.96875 Z M 207.222656 316.96875 " fill-opacity="1" fill-rule="nonzero"/><path fill="#000000" d="M 118.15625 316.96875 C 117.519531 316.976562 116.890625 316.898438 116.273438 316.730469 C 115.65625 316.5625 115.074219 316.316406 114.527344 315.988281 C 113.980469 315.65625 113.488281 315.261719 113.050781 314.796875 C 112.613281 314.328125 112.246094 313.8125 111.953125 313.246094 C 63.421875 217.839844 63.421875 116.640625 111.816406 12.546875 C 112.003906 12.113281 112.238281 11.707031 112.515625 11.324219 C 112.789062 10.9375 113.101562 10.585938 113.449219 10.265625 C 113.792969 9.949219 114.171875 9.667969 114.574219 9.421875 C 114.980469 9.179688 115.40625 8.980469 115.851562 8.828125 C 116.296875 8.671875 116.757812 8.5625 117.222656 8.503906 C 117.691406 8.441406 118.160156 8.429688 118.632812 8.464844 C 119.105469 8.5 119.566406 8.582031 120.019531 8.710938 C 120.472656 8.84375 120.910156 9.015625 121.328125 9.238281 C 121.738281 9.421875 122.128906 9.648438 122.496094 9.910156 C 122.859375 10.171875 123.199219 10.46875 123.503906 10.800781 C 123.8125 11.132812 124.082031 11.488281 124.320312 11.875 C 124.554688 12.261719 124.75 12.664062 124.902344 13.089844 C 125.058594 13.511719 125.167969 13.949219 125.234375 14.394531 C 125.300781 14.839844 125.324219 15.289062 125.300781 15.738281 C 125.277344 16.191406 125.210938 16.632812 125.097656 17.070312 C 124.988281 17.507812 124.832031 17.929688 124.636719 18.335938 C 78.035156 118.433594 78.035156 215.496094 124.636719 307.042969 C 124.847656 307.441406 125.019531 307.859375 125.144531 308.296875 C 125.273438 308.730469 125.355469 309.175781 125.394531 309.628906 C 125.433594 310.078125 125.425781 310.53125 125.371094 310.980469 C 125.320312 311.433594 125.222656 311.875 125.082031 312.304688 C 124.941406 312.734375 124.757812 313.148438 124.53125 313.542969 C 124.308594 313.9375 124.046875 314.304688 123.746094 314.644531 C 123.449219 314.988281 123.117188 315.296875 122.757812 315.570312 C 122.398438 315.84375 122.011719 316.082031 121.601562 316.277344 C 120.523438 316.855469 119.375 317.085938 118.15625 316.96875 Z M 118.15625 316.96875 " fill-opacity="1" fill-rule="nonzero"/></svg>