<svg xmlns="http://www.w3.org/2000/svg" xmlns:xlink="http://www.w3.org/1999/xlink" width="432" zoomAndPan="magnify" viewBox="0 0 324 323.999988" height="432" preserveAspectRatio="xMidYMid meet" version="1.0"><path fill="#000000" d="M 162 0 C 72.53125 0 0 72.53125 0 162 C 0 251.46875 72.53125 324 162 324 C 251.46875 324 324 251.46875 324 162 C 324 72.53125 251.46875 0 162 0 Z M 162 311.730469 C 79.308594 311.730469 12.269531 244.691406 12.269531 162 C 12.269531 79.308594 79.308594 12.269531 162 12.269531 C 244.691406 12.269531 311.730469 79.308594 311.730469 162 C 311.730469 244.691406 244.691406 311.730469 162 311.730469 Z M 162 311.730469 " fill-opacity="1" fill-rule="nonzero"/><path fill="#000000" d="M 142.988281 241.40625 C 138.921875 241.796875 135.679688 242.246094 132.417969 242.398438 C 113.933594 243.273438 100.25 235.984375 91.949219 218.992188 C 89.308594 213.582031 85.925781 208.472656 82.402344 203.570312 C 80.285156 200.625 77.320312 198.261719 74.582031 195.808594 L 74.546875 195.78125 C 72.855469 194.289062 73.601562 191.5 75.824219 191.128906 C 78.4375 190.6875 80.871094 191.160156 83.246094 191.765625 C 90.675781 193.65625 95.449219 198.925781 99.25 205.226562 C 107.84375 219.476562 122.648438 225.421875 138.65625 221.175781 C 141.375 220.457031 142.570312 219.285156 143.164062 216.324219 C 143.851562 212.867188 144.789062 209.457031 145.796875 205.984375 C 145.945312 205.472656 146.042969 204.953125 146.085938 204.421875 C 146.128906 203.890625 146.117188 203.359375 146.050781 202.832031 C 145.984375 202.304688 145.867188 201.785156 145.695312 201.28125 C 145.527344 200.777344 145.304688 200.292969 145.039062 199.835938 C 144.769531 199.375 144.457031 198.945312 144.101562 198.550781 C 143.746094 198.152344 143.355469 197.796875 142.925781 197.480469 C 142.496094 197.164062 142.042969 196.890625 141.558594 196.667969 C 141.074219 196.445312 140.574219 196.269531 140.054688 196.148438 L 139.964844 196.125 C 123.355469 192.152344 109.007812 184.753906 99.765625 169.574219 C 94.820312 161.457031 92.375 152.519531 92.5 143.203125 C 92.644531 132.636719 93.578125 122.046875 94.792969 111.539062 C 95.648438 104.140625 99.074219 97.585938 104.394531 92.265625 C 106.25 90.410156 106.40625 88.855469 105.511719 86.457031 C 101.847656 76.625 102.484375 66.769531 105.734375 56.917969 C 106.652344 54.136719 107.953125 53.742188 110.613281 54.578125 C 118.84375 57.167969 124.984375 62.523438 130.378906 68.9375 L 130.4375 69.003906 C 131.113281 69.816406 131.894531 70.515625 132.78125 71.09375 C 133.671875 71.671875 134.621094 72.109375 135.640625 72.40625 C 136.660156 72.699219 137.695312 72.839844 138.757812 72.820312 C 139.816406 72.804688 140.851562 72.632812 141.859375 72.304688 C 158.9375 66.703125 184.847656 66.628906 200.953125 72.171875 C 201.964844 72.515625 203.003906 72.703125 204.074219 72.730469 C 205.144531 72.757812 206.191406 72.628906 207.21875 72.339844 C 208.25 72.050781 209.210938 71.613281 210.109375 71.03125 C 211.007812 70.453125 211.796875 69.75 212.480469 68.929688 L 212.535156 68.867188 C 217.9375 62.457031 224.105469 57.144531 232.328125 54.546875 C 235.089844 53.671875 236.265625 54.335938 237.136719 57.019531 C 240.347656 66.878906 240.894531 76.671875 237.421875 86.605469 C 236.933594 88.003906 236.953125 90.4375 237.824219 91.320312 C 245.199219 98.796875 248.425781 108.085938 249.246094 118.144531 C 250.035156 127.863281 250.894531 137.75 249.992188 147.402344 C 247.644531 172.503906 232.382812 187.125 209.171875 194.390625 C 207.1875 195.011719 205.167969 195.535156 203.109375 196.019531 C 202.574219 196.148438 202.058594 196.328125 201.558594 196.5625 C 201.0625 196.796875 200.59375 197.082031 200.15625 197.414062 C 199.71875 197.75 199.320312 198.125 198.960938 198.539062 C 198.601562 198.957031 198.289062 199.40625 198.023438 199.890625 C 197.757812 200.371094 197.546875 200.875 197.386719 201.402344 C 197.230469 201.929688 197.125 202.46875 197.082031 203.015625 C 197.035156 203.566406 197.046875 204.113281 197.113281 204.65625 C 197.183594 205.203125 197.308594 205.738281 197.488281 206.257812 C 200.648438 215.417969 200.167969 225.207031 200.117188 234.929688 C 200.105469 237.164062 200.097656 239.402344 200.09375 241.640625 C 200.09375 242.5625 200.046875 243.484375 199.953125 244.402344 C 199.859375 245.320312 199.722656 246.234375 199.542969 247.140625 C 199.359375 248.046875 199.132812 248.941406 198.863281 249.824219 C 198.59375 250.707031 198.28125 251.574219 197.929688 252.425781 C 197.574219 253.277344 197.175781 254.113281 196.742188 254.925781 C 196.304688 255.738281 195.828125 256.53125 195.316406 257.296875 C 194.800781 258.066406 194.25 258.804688 193.664062 259.519531 C 193.078125 260.230469 192.457031 260.914062 191.804688 261.566406 C 191.148438 262.21875 190.464844 262.835938 189.75 263.421875 C 189.035156 264.007812 188.296875 264.554688 187.527344 265.070312 C 186.757812 265.582031 185.96875 266.054688 185.152344 266.488281 C 184.335938 266.925781 183.503906 267.316406 182.648438 267.671875 C 181.796875 268.023438 180.929688 268.332031 180.042969 268.601562 C 179.160156 268.871094 178.265625 269.09375 177.359375 269.273438 C 176.453125 269.453125 175.542969 269.585938 174.621094 269.679688 C 173.703125 269.769531 172.78125 269.8125 171.859375 269.8125 L 171.222656 269.8125 C 170.296875 269.8125 169.375 269.769531 168.453125 269.675781 C 167.535156 269.585938 166.621094 269.453125 165.714844 269.269531 C 164.808594 269.089844 163.910156 268.867188 163.027344 268.597656 C 162.140625 268.328125 161.269531 268.019531 160.417969 267.664062 C 159.5625 267.308594 158.726562 266.914062 157.910156 266.480469 C 157.097656 266.042969 156.304688 265.570312 155.535156 265.054688 C 154.765625 264.539062 154.023438 263.992188 153.308594 263.402344 C 152.59375 262.816406 151.910156 262.195312 151.257812 261.542969 C 150.601562 260.890625 149.980469 260.203125 149.394531 259.488281 C 148.808594 258.773438 148.257812 258.03125 147.746094 257.265625 C 147.230469 256.496094 146.753906 255.703125 146.320312 254.886719 C 145.882812 254.070312 145.488281 253.238281 145.136719 252.382812 C 144.78125 251.527344 144.46875 250.660156 144.203125 249.773438 C 143.933594 248.886719 143.707031 247.992188 143.527344 247.085938 C 143.347656 246.179688 143.210938 245.265625 143.121094 244.34375 C 143.03125 243.425781 142.984375 242.5 142.984375 241.578125 Z M 142.988281 241.40625 " fill-opacity="1" fill-rule="nonzero"/></svg>