<svg xmlns="http://www.w3.org/2000/svg" xmlns:xlink="http://www.w3.org/1999/xlink" width="567" zoomAndPan="magnify" viewBox="0 0 425.25 318.749995" height="425" preserveAspectRatio="xMidYMid meet" version="1.0"><defs><clipPath id="56770fe3f0"><path d="M 0 0.15625 L 424.5 0.15625 L 424.5 318.34375 L 0 318.34375 Z M 0 0.15625 " clip-rule="nonzero"/></clipPath></defs><g clip-path="url(#56770fe3f0)"><path fill="#000000" d="M 391.195312 318.28125 L 32.894531 318.28125 C 30.175781 317.929688 28.195312 317.625 26.953125 317.363281 C 15.476562 314.945312 5.953125 305.949219 2.125 295.207031 C 0.980469 291.996094 0.554688 288.632812 0 285.226562 L 0 32.703125 C 0.597656 31.082031 0.554688 29.253906 0.886719 27.875 C 1.34375 25.988281 1.804688 23.878906 2.558594 22.125 C 7.394531 10.796875 15.839844 3.796875 27.890625 1.125 C 29 0.878906 30.113281 0.730469 31.222656 0.679688 C 32.722656 0.617188 34.183594 0.265625 35.699219 0.265625 C 152.425781 0.214844 270.402344 0.214844 389.625 0.265625 C 390.535156 0.265625 391.4375 0.332031 392.335938 0.464844 C 393.226562 0.601562 394.121094 0.726562 395.027344 0.847656 C 398.148438 1.257812 400.90625 2 403.300781 3.074219 C 414.710938 8.164062 423.132812 18.894531 423.972656 31.671875 C 424.105469 33.746094 424.316406 35.761719 424.304688 37.8125 C 423.824219 101.222656 424.089844 164.683594 424.09375 232.570312 C 424.09375 247.109375 424.476562 262.410156 424.273438 277.726562 C 424.210938 282.445312 424.101562 285.640625 423.945312 287.308594 C 423.003906 297.34375 418.269531 305.523438 409.75 311.84375 C 405.695312 314.855469 401.160156 316.765625 396.148438 317.578125 C 394.5 317.847656 392.847656 318.082031 391.195312 318.28125 Z M 205.84375 191.4375 C 211.234375 193.480469 217.5625 192.15625 221.746094 188.257812 C 258.722656 153.796875 295.492188 119.683594 332.046875 85.925781 C 353.164062 66.425781 374.097656 47.027344 394.847656 27.726562 C 395.167969 27.429688 395.179688 27.121094 394.878906 26.800781 C 394.40625 26.304688 393.703125 26.054688 392.773438 26.054688 C 271.6875 26.015625 152.074219 25.992188 33.929688 25.992188 C 31.613281 25.992188 30.289062 26.53125 28.722656 28.027344 C 28.496094 28.246094 28.5 28.460938 28.734375 28.667969 C 30 29.78125 31.265625 30.910156 32.53125 32.066406 C 46.625 44.953125 62.429688 59.578125 79.945312 75.933594 C 117.554688 111.050781 154.050781 145 189.441406 177.78125 C 192.585938 180.691406 195.8125 183.671875 199.121094 186.726562 C 201.773438 189.179688 204.015625 190.75 205.84375 191.4375 Z M 397.902344 61.402344 C 397.902344 61.316406 397.859375 61.238281 397.773438 61.171875 C 397.6875 61.101562 397.597656 61.101562 397.507812 61.167969 C 394.59375 63.417969 392.253906 66.0625 389.480469 68.648438 C 359.449219 96.574219 328.636719 125.339844 297.046875 154.953125 C 296.746094 155.238281 296.429688 155.496094 296.089844 155.71875 C 295.609375 156.042969 295.59375 156.394531 296.035156 156.769531 C 297.085938 157.664062 298.015625 158.488281 298.828125 159.25 C 315.90625 175.265625 334.289062 192.605469 353.976562 211.265625 C 357.78125 214.871094 361.125 218.089844 364.003906 220.921875 C 367.136719 223.996094 370.460938 226.910156 373.585938 229.980469 C 376.03125 232.378906 378.421875 234.644531 380.757812 236.769531 C 384.652344 240.296875 388.210938 244.015625 392.125 247.554688 C 393.976562 249.226562 395.773438 250.96875 397.507812 252.777344 C 397.578125 252.855469 397.664062 252.882812 397.769531 252.863281 C 397.929688 252.835938 398.007812 252.761719 398.007812 252.640625 C 398.011719 189 398.007812 125.382812 397.996094 61.789062 C 397.996094 61.707031 397.976562 61.628906 397.941406 61.554688 C 397.917969 61.511719 397.902344 61.457031 397.902344 61.402344 Z M 26.832031 252.871094 C 29.460938 250.242188 32.308594 247.46875 35.371094 244.550781 C 62.84375 218.398438 89.980469 192.460938 116.773438 166.75 C 119.820312 163.820312 123.023438 160.792969 126.390625 157.660156 C 127.046875 157.050781 127.042969 156.445312 126.375 155.847656 C 125.082031 154.671875 123.855469 153.539062 122.691406 152.449219 C 90.320312 122.109375 59.84375 93.691406 31.253906 67.191406 C 29.542969 65.605469 27.902344 64.074219 26.339844 62.601562 C 26.269531 62.539062 26.234375 62.539062 26.234375 62.601562 L 26.109375 252.566406 C 26.109375 253.25 26.351562 253.351562 26.832031 252.871094 Z M 213.484375 218.941406 C 200.613281 219.527344 190.230469 214.859375 180.816406 205.984375 C 172.25 197.914062 161.675781 188.003906 149.09375 176.246094 C 148.5625 175.75 147.992188 175.273438 147.378906 174.808594 C 147.199219 174.675781 146.996094 174.613281 146.773438 174.625 C 146.550781 174.636719 146.355469 174.71875 146.191406 174.871094 C 144.609375 176.308594 143.109375 177.921875 141.578125 179.382812 C 108.761719 210.753906 76.261719 241.902344 44.070312 272.832031 C 40.003906 276.738281 36.378906 280.148438 33.195312 283.058594 C 31.402344 284.703125 29.707031 286.328125 28.121094 287.925781 C 27.691406 288.355469 27.6875 288.796875 28.101562 289.238281 C 30.644531 291.953125 32.886719 291.765625 36.996094 291.765625 C 154.664062 291.765625 272.328125 291.765625 389.992188 291.765625 C 392.894531 291.765625 394.503906 291.476562 396.050781 289.128906 C 396.40625 288.582031 396.347656 288.085938 395.875 287.640625 C 357.960938 251.742188 320.058594 215.800781 282.167969 179.820312 C 280.054688 177.816406 278.265625 176.007812 276.800781 174.394531 C 276.707031 174.292969 276.597656 174.214844 276.472656 174.15625 C 276.347656 174.097656 276.21875 174.066406 276.082031 174.058594 C 275.941406 174.054688 275.808594 174.074219 275.679688 174.121094 C 275.550781 174.167969 275.433594 174.238281 275.335938 174.332031 C 264.652344 184.21875 254.046875 194.246094 243.457031 204.210938 C 239.394531 208.03125 236.25 210.664062 234.023438 212.101562 C 227.46875 216.335938 220.621094 218.617188 213.484375 218.941406 Z M 213.484375 218.941406 " fill-opacity="1" fill-rule="nonzero"/></g></svg>