<svg xmlns="http://www.w3.org/2000/svg" xmlns:xlink="http://www.w3.org/1999/xlink" width="432" zoomAndPan="magnify" viewBox="0 0 324 323.999988" height="432" preserveAspectRatio="xMidYMid meet" version="1.0"><path fill="#000000" d="M 162.890625 0 C 118.265625 0 112.910156 0 95.949219 0.890625 C 78.992188 0.890625 66.496094 4.460938 56.675781 8.03125 C 45.96875 12.496094 37.042969 17.851562 28.117188 26.777344 C 19.191406 35.703125 13.835938 44.628906 9.371094 55.339844 C 4.910156 66.050781 2.230469 77.652344 2.230469 94.613281 C 0.445312 113.355469 0.445312 118.710938 0.445312 162.445312 C 0.445312 207.074219 0.445312 212.429688 1.339844 229.386719 C 1.339844 246.347656 4.910156 258.84375 8.480469 268.660156 C 12.941406 279.371094 18.296875 288.296875 27.222656 297.222656 C 36.148438 306.148438 45.074219 311.503906 55.785156 315.96875 C 66.496094 320.429688 78.097656 323.105469 95.058594 323.105469 C 112.015625 323.105469 118.265625 324 162 324 C 205.734375 324 211.984375 324 228.941406 323.105469 C 245.902344 323.105469 258.398438 319.539062 268.214844 315.96875 C 278.925781 311.503906 287.851562 306.148438 296.777344 297.222656 C 305.703125 288.296875 311.058594 279.371094 315.519531 268.660156 C 319.089844 257.949219 322.660156 246.347656 322.660156 229.386719 C 322.660156 212.429688 323.554688 206.183594 323.554688 162.445312 C 323.554688 117.816406 323.554688 112.460938 322.660156 95.503906 C 322.660156 78.546875 319.089844 66.050781 315.519531 56.230469 C 311.058594 45.519531 305.703125 36.59375 296.777344 27.667969 C 287.851562 18.742188 278.925781 13.386719 268.214844 8.925781 C 257.503906 4.460938 245.902344 1.785156 228.941406 1.785156 C 212.875 0 207.519531 0 162.890625 0 Z M 148.613281 29.453125 C 153.074219 29.453125 157.539062 29.453125 162.890625 29.453125 C 206.628906 29.453125 211.089844 29.453125 228.941406 30.347656 C 245.007812 30.347656 253.042969 33.917969 259.289062 35.703125 C 267.324219 38.378906 272.675781 41.949219 278.03125 48.199219 C 283.386719 53.554688 286.957031 58.910156 290.527344 66.941406 C 292.3125 72.296875 294.992188 81.222656 295.882812 97.289062 C 295.882812 114.246094 296.777344 119.601562 296.777344 163.339844 C 296.777344 207.074219 296.777344 211.539062 295.882812 229.386719 C 295.882812 245.453125 292.3125 253.488281 290.527344 259.734375 C 287.851562 267.769531 284.28125 273.125 278.03125 278.480469 C 272.675781 283.835938 267.324219 287.40625 259.289062 290.976562 C 253.933594 293.652344 245.007812 295.4375 228.941406 296.332031 C 211.984375 296.332031 206.628906 297.222656 162.890625 297.222656 C 119.15625 297.222656 114.695312 297.222656 96.84375 296.332031 C 80.777344 296.332031 72.742188 292.761719 66.496094 290.976562 C 58.460938 288.296875 53.109375 284.726562 47.753906 278.480469 C 42.398438 273.125 38.828125 267.769531 35.257812 259.734375 C 33.472656 254.378906 30.792969 245.453125 29.902344 229.386719 C 29.902344 212.429688 29.007812 207.074219 29.007812 163.339844 C 29.007812 119.601562 29.007812 115.140625 29.902344 97.289062 C 29.902344 81.222656 33.472656 73.191406 35.257812 66.941406 C 37.933594 58.910156 41.503906 53.554688 47.753906 48.199219 C 53.109375 42.84375 58.460938 39.273438 66.496094 35.703125 C 71.851562 33.023438 80.777344 31.238281 96.84375 30.347656 C 112.015625 30.347656 117.371094 30.347656 147.71875 29.453125 Z M 162.890625 79.4375 C 116.480469 79.4375 78.992188 116.925781 78.992188 163.339844 C 78.992188 209.753906 116.480469 247.238281 162.890625 247.238281 C 209.304688 247.238281 246.792969 209.753906 246.792969 163.339844 C 246.792969 116.925781 209.304688 79.4375 162.890625 79.4375 Z M 162.890625 108.890625 C 193.238281 108.890625 217.339844 132.992188 217.339844 163.339844 C 217.339844 193.6875 193.238281 217.785156 162.890625 217.785156 C 132.546875 217.785156 108.445312 193.6875 108.445312 163.339844 C 108.445312 132.992188 132.546875 108.890625 162.890625 108.890625 Z M 162.890625 108.890625 " fill-opacity="1" fill-rule="nonzero"/></svg>