<svg xmlns="http://www.w3.org/2000/svg" xmlns:xlink="http://www.w3.org/1999/xlink" width="432" zoomAndPan="magnify" viewBox="0 0 324 323.999988" height="432" preserveAspectRatio="xMidYMid meet" version="1.0"><path fill="#000000" d="M 75.535156 117.507812 L 99.496094 117.507812 C 99.800781 117.507812 100.097656 117.535156 100.394531 117.59375 C 100.691406 117.652344 100.976562 117.742188 101.257812 117.855469 C 101.535156 117.972656 101.800781 118.113281 102.050781 118.28125 C 102.300781 118.449219 102.535156 118.640625 102.746094 118.851562 C 102.960938 119.066406 103.152344 119.296875 103.320312 119.546875 C 103.488281 119.800781 103.628906 120.066406 103.742188 120.34375 C 103.859375 120.621094 103.945312 120.910156 104.003906 121.207031 C 104.0625 121.5 104.09375 121.800781 104.09375 122.101562 L 104.09375 253.914062 C 104.09375 254.214844 104.0625 254.515625 104.003906 254.8125 C 103.945312 255.105469 103.859375 255.394531 103.742188 255.671875 C 103.628906 255.953125 103.488281 256.21875 103.320312 256.46875 C 103.152344 256.71875 102.960938 256.949219 102.746094 257.164062 C 102.535156 257.378906 102.300781 257.570312 102.050781 257.734375 C 101.800781 257.902344 101.535156 258.046875 101.257812 258.160156 C 100.976562 258.277344 100.691406 258.363281 100.394531 258.421875 C 100.097656 258.480469 99.800781 258.511719 99.496094 258.511719 L 75.535156 258.511719 C 75.230469 258.511719 74.933594 258.480469 74.636719 258.421875 C 74.339844 258.363281 74.054688 258.277344 73.773438 258.160156 C 73.496094 258.046875 73.230469 257.902344 72.980469 257.734375 C 72.730469 257.570312 72.496094 257.378906 72.285156 257.164062 C 72.070312 256.949219 71.878906 256.71875 71.710938 256.46875 C 71.542969 256.21875 71.402344 255.953125 71.289062 255.671875 C 71.171875 255.394531 71.085938 255.105469 71.027344 254.8125 C 70.96875 254.515625 70.9375 254.214844 70.9375 253.914062 L 70.9375 122.101562 C 70.9375 121.800781 70.96875 121.5 71.027344 121.207031 C 71.085938 120.910156 71.171875 120.621094 71.289062 120.34375 C 71.402344 120.066406 71.542969 119.800781 71.710938 119.546875 C 71.878906 119.296875 72.070312 119.066406 72.285156 118.851562 C 72.496094 118.640625 72.730469 118.449219 72.980469 118.28125 C 73.230469 118.113281 73.496094 117.972656 73.773438 117.855469 C 74.054688 117.742188 74.339844 117.652344 74.636719 117.59375 C 74.933594 117.535156 75.230469 117.507812 75.535156 117.507812 Z M 75.535156 117.507812 " fill-opacity="1" fill-rule="nonzero"/><path fill="#000000" d="M 106.820312 84.988281 C 106.78125 73.6875 98.675781 65.488281 87.515625 65.488281 C 76.359375 65.488281 67.941406 73.902344 67.941406 85.066406 C 67.941406 90.257812 69.835938 95.089844 73.273438 98.667969 C 76.808594 102.34375 81.671875 104.367188 86.972656 104.367188 C 92.84375 104.367188 98.085938 102.300781 101.730469 98.519531 C 105.148438 94.984375 106.953125 90.210938 106.820312 85.066406 C 106.820312 85.039062 106.820312 85.019531 106.820312 84.988281 Z M 106.820312 84.988281 " fill-opacity="1" fill-rule="nonzero"/><path fill="#000000" d="M 238.085938 126.777344 C 226.152344 116.105469 212.167969 114.511719 204.890625 114.511719 C 194.023438 114.511719 183.667969 117.414062 174.9375 122.910156 C 171.121094 125.3125 167.675781 128.160156 164.597656 131.457031 L 163.996094 121.804688 C 163.957031 121.222656 163.816406 120.664062 163.566406 120.136719 C 163.316406 119.605469 162.976562 119.140625 162.550781 118.738281 C 162.125 118.339844 161.636719 118.03125 161.09375 117.816406 C 160.550781 117.601562 159.984375 117.496094 159.398438 117.496094 L 138.167969 117.496094 C 137.851562 117.496094 137.539062 117.53125 137.230469 117.59375 C 136.921875 117.660156 136.621094 117.753906 136.332031 117.882812 C 136.042969 118.007812 135.765625 118.164062 135.507812 118.34375 C 135.25 118.527344 135.015625 118.734375 134.800781 118.96875 C 134.585938 119.199219 134.394531 119.449219 134.234375 119.722656 C 134.070312 119.992188 133.9375 120.277344 133.832031 120.574219 C 133.726562 120.875 133.652344 121.179688 133.613281 121.496094 C 133.570312 121.808594 133.5625 122.121094 133.585938 122.4375 C 134.339844 132.496094 134.664062 143.066406 134.664062 157.769531 L 134.664062 253.914062 C 134.664062 254.214844 134.691406 254.515625 134.75 254.8125 C 134.808594 255.105469 134.898438 255.394531 135.011719 255.671875 C 135.128906 255.953125 135.269531 256.21875 135.4375 256.46875 C 135.605469 256.71875 135.792969 256.949219 136.007812 257.164062 C 136.222656 257.378906 136.453125 257.570312 136.703125 257.734375 C 136.957031 257.902344 137.21875 258.046875 137.5 258.160156 C 137.777344 258.277344 138.066406 258.363281 138.363281 258.421875 C 138.65625 258.480469 138.957031 258.511719 139.257812 258.511719 L 163.226562 258.511719 C 163.527344 258.511719 163.824219 258.480469 164.121094 258.421875 C 164.417969 258.363281 164.703125 258.277344 164.984375 258.160156 C 165.261719 258.046875 165.527344 257.902344 165.777344 257.734375 C 166.027344 257.570312 166.261719 257.378906 166.472656 257.164062 C 166.6875 256.949219 166.878906 256.71875 167.046875 256.46875 C 167.214844 256.21875 167.355469 255.953125 167.46875 255.671875 C 167.585938 255.394531 167.671875 255.105469 167.730469 254.8125 C 167.792969 254.515625 167.820312 254.214844 167.820312 253.914062 L 167.820312 174.664062 C 167.820312 170.9375 168.316406 167.441406 169.179688 165.066406 C 169.203125 164.992188 169.230469 164.917969 169.253906 164.835938 C 172.492188 154.269531 182.328125 143.578125 196.996094 143.578125 C 206.074219 143.578125 212.589844 146.683594 216.917969 153.066406 C 220.824219 158.839844 222.894531 167.4375 222.894531 177.925781 L 222.894531 253.914062 C 222.894531 254.214844 222.921875 254.515625 222.980469 254.8125 C 223.039062 255.105469 223.128906 255.394531 223.242188 255.671875 C 223.359375 255.953125 223.5 256.21875 223.667969 256.46875 C 223.835938 256.71875 224.027344 256.949219 224.238281 257.164062 C 224.453125 257.378906 224.683594 257.570312 224.9375 257.734375 C 225.1875 257.902344 225.453125 258.046875 225.730469 258.160156 C 226.007812 258.277344 226.296875 258.363281 226.59375 258.421875 C 226.890625 258.480469 227.1875 258.511719 227.488281 258.511719 L 251.457031 258.511719 C 251.757812 258.511719 252.058594 258.480469 252.351562 258.421875 C 252.648438 258.363281 252.9375 258.277344 253.214844 258.160156 C 253.492188 258.046875 253.757812 257.902344 254.007812 257.734375 C 254.261719 257.570312 254.492188 257.378906 254.707031 257.164062 C 254.917969 256.949219 255.109375 256.71875 255.277344 256.46875 C 255.445312 256.21875 255.585938 255.953125 255.703125 255.671875 C 255.816406 255.394531 255.90625 255.105469 255.964844 254.8125 C 256.023438 254.515625 256.050781 254.214844 256.050781 253.914062 L 256.050781 175.207031 C 256.050781 163.996094 254.355469 154.054688 251.015625 145.667969 C 248.015625 138.125 243.660156 131.769531 238.085938 126.777344 Z M 238.085938 126.777344 " fill-opacity="1" fill-rule="nonzero"/><path fill="#000000" d="M 281.820312 0 L 42.179688 0 C 18.921875 0 0 18.921875 0 42.179688 L 0 281.820312 C 0 305.078125 18.921875 324 42.179688 324 L 281.820312 324 C 305.078125 324 324 305.078125 324 281.820312 L 324 42.179688 C 324 18.921875 305.078125 0 281.820312 0 Z M 294.382812 44.222656 L 294.382812 279.777344 C 294.382812 280.734375 294.289062 281.683594 294.097656 282.625 C 293.910156 283.566406 293.632812 284.480469 293.265625 285.363281 C 292.898438 286.25 292.449219 287.089844 291.917969 287.886719 C 291.382812 288.683594 290.777344 289.421875 290.101562 290.101562 C 289.421875 290.777344 288.683594 291.382812 287.886719 291.917969 C 287.089844 292.449219 286.25 292.898438 285.363281 293.265625 C 284.480469 293.632812 283.566406 293.910156 282.625 294.097656 C 281.683594 294.289062 280.734375 294.382812 279.777344 294.382812 L 44.222656 294.382812 C 43.265625 294.382812 42.3125 294.289062 41.375 294.097656 C 40.433594 293.910156 39.519531 293.632812 38.636719 293.265625 C 37.75 292.898438 36.910156 292.449219 36.113281 291.917969 C 35.316406 291.382812 34.578125 290.777344 33.898438 290.101562 C 33.222656 289.421875 32.617188 288.683594 32.082031 287.886719 C 31.550781 287.089844 31.101562 286.25 30.734375 285.363281 C 30.367188 284.480469 30.089844 283.566406 29.902344 282.625 C 29.710938 281.683594 29.617188 280.734375 29.617188 279.777344 L 29.617188 44.222656 C 29.617188 43.265625 29.710938 42.3125 29.902344 41.375 C 30.089844 40.433594 30.367188 39.519531 30.734375 38.636719 C 31.101562 37.75 31.550781 36.910156 32.082031 36.113281 C 32.617188 35.316406 33.222656 34.578125 33.898438 33.898438 C 34.578125 33.222656 35.316406 32.617188 36.113281 32.082031 C 36.910156 31.550781 37.75 31.101562 38.636719 30.734375 C 39.519531 30.367188 40.433594 30.089844 41.375 29.902344 C 42.3125 29.710938 43.265625 29.617188 44.222656 29.617188 L 279.777344 29.617188 C 280.734375 29.617188 281.683594 29.710938 282.625 29.902344 C 283.566406 30.089844 284.480469 30.367188 285.363281 30.734375 C 286.25 31.101562 287.089844 31.550781 287.886719 32.082031 C 288.683594 32.617188 289.421875 33.222656 290.101562 33.898438 C 290.777344 34.578125 291.382812 35.316406 291.917969 36.113281 C 292.449219 36.910156 292.898438 37.75 293.265625 38.636719 C 293.632812 39.519531 293.910156 40.433594 294.097656 41.375 C 294.289062 42.3125 294.382812 43.265625 294.382812 44.222656 Z M 294.382812 44.222656 " fill-opacity="1" fill-rule="nonzero"/></svg>