<svg xmlns="http://www.w3.org/2000/svg" xmlns:xlink="http://www.w3.org/1999/xlink" width="454" zoomAndPan="magnify" viewBox="0 0 340.5 323.999988" height="432" preserveAspectRatio="xMidYMid meet" version="1.0"><path fill="#000000" d="M 338.148438 25.691406 L 275.996094 281.070312 C 275.84375 281.675781 275.664062 282.273438 275.445312 282.859375 C 275.226562 283.445312 274.980469 284.015625 274.699219 284.574219 C 274.414062 285.132812 274.105469 285.671875 273.761719 286.195312 C 273.417969 286.71875 273.046875 287.21875 272.648438 287.699219 C 272.25 288.179688 271.824219 288.636719 271.371094 289.070312 C 270.921875 289.503906 270.445312 289.910156 269.949219 290.289062 C 269.453125 290.667969 268.9375 291.019531 268.398438 291.339844 C 267.863281 291.660156 267.308594 291.953125 266.742188 292.210938 C 266.171875 292.46875 265.589844 292.695312 264.996094 292.886719 C 264.398438 293.082031 263.796875 293.242188 263.183594 293.363281 C 262.570312 293.488281 261.953125 293.582031 261.328125 293.636719 C 260.707031 293.691406 260.082031 293.710938 259.457031 293.695312 C 258.832031 293.679688 258.207031 293.628906 257.589844 293.542969 C 256.96875 293.460938 256.355469 293.339844 255.75 293.183594 C 255.144531 293.03125 254.546875 292.84375 253.964844 292.621094 C 253.378906 292.398438 252.808594 292.144531 252.253906 291.859375 L 176.167969 252.660156 L 139.769531 312.066406 C 139.21875 312.96875 138.59375 313.824219 137.902344 314.625 C 137.210938 315.429688 136.457031 316.171875 135.644531 316.851562 C 134.832031 317.53125 133.972656 318.144531 133.058594 318.683594 C 132.148438 319.226562 131.199219 319.6875 130.210938 320.074219 C 129.222656 320.460938 128.210938 320.765625 127.171875 320.988281 C 126.136719 321.210938 125.089844 321.351562 124.03125 321.402344 C 122.96875 321.453125 121.914062 321.421875 120.859375 321.300781 C 119.804688 321.183594 118.769531 320.980469 117.746094 320.691406 C 116.726562 320.40625 115.734375 320.039062 114.773438 319.589844 C 113.8125 319.140625 112.894531 318.621094 112.019531 318.023438 C 111.140625 317.425781 110.320312 316.761719 109.550781 316.03125 C 108.785156 315.300781 108.078125 314.511719 107.441406 313.667969 C 106.800781 312.824219 106.230469 311.933594 105.738281 310.996094 C 105.242188 310.058594 104.824219 309.085938 104.488281 308.082031 C 104.148438 307.078125 103.894531 306.054688 103.726562 305.007812 C 103.554688 303.960938 103.46875 302.910156 103.46875 301.851562 L 103.46875 224.566406 L 109.636719 218.46875 L 137.40625 191.242188 L 256.183594 74.726562 L 74.613281 200.464844 L 7.285156 165.832031 C 6.160156 165.253906 5.136719 164.53125 4.214844 163.664062 C 3.296875 162.796875 2.511719 161.820312 1.867188 160.734375 C 1.222656 159.648438 0.738281 158.492188 0.417969 157.269531 C 0.101562 156.046875 -0.0429688 154.804688 -0.0117188 153.542969 C 0.0195312 152.277344 0.226562 151.042969 0.605469 149.839844 C 0.988281 148.632812 1.527344 147.503906 2.226562 146.453125 C 2.925781 145.398438 3.753906 144.460938 4.71875 143.644531 C 5.683594 142.824219 6.742188 142.15625 7.894531 141.632812 L 311.847656 3.953125 C 312.65625 3.609375 313.480469 3.316406 314.328125 3.082031 C 315.175781 2.851562 316.035156 2.675781 316.90625 2.558594 C 317.773438 2.445312 318.648438 2.390625 319.527344 2.394531 C 320.40625 2.398438 321.28125 2.464844 322.148438 2.585938 C 323.019531 2.710938 323.875 2.894531 324.71875 3.136719 C 325.566406 3.378906 326.386719 3.679688 327.191406 4.035156 C 327.996094 4.390625 328.769531 4.796875 329.515625 5.257812 C 330.261719 5.71875 330.976562 6.230469 331.652344 6.789062 C 332.328125 7.351562 332.964844 7.953125 333.558594 8.597656 C 334.152344 9.246094 334.699219 9.929688 335.199219 10.652344 C 335.699219 11.375 336.144531 12.125 336.542969 12.910156 C 336.9375 13.691406 337.277344 14.5 337.5625 15.328125 C 337.847656 16.160156 338.074219 17.003906 338.246094 17.863281 C 338.414062 18.726562 338.523438 19.59375 338.570312 20.46875 C 338.621094 21.347656 338.609375 22.222656 338.539062 23.097656 C 338.46875 23.972656 338.335938 24.835938 338.148438 25.691406 Z M 338.148438 25.691406 " fill-opacity="1" fill-rule="nonzero"/></svg>